<?xml version="1.0" standalone="no"?>
<!DOCTYPE svg PUBLIC "-//W3C//DTD SVG 1.1//EN" "http://www.w3.org/Graphics/SVG/1.1/DTD/svg11.dtd" >
<svg xmlns="http://www.w3.org/2000/svg">
<metadata>Generated by IcoMoon</metadata>
<defs>
<font id="icomoon" horiz-adv-x="1024">
<font-face units-per-em="1024" ascent="896" descent="-128" />
<missing-glyph horiz-adv-x="1024" />
<glyph unicode="&#x20;" d="" />
<glyph unicode="&#x78;" glyph-name="x" horiz-adv-x="1001" d="M281 543q-27-1-53-1h-83q-18 0-36.5-6t-32.5-18.5-23-32-9-45.5v-76h912v41q0 16-0.5 30t-0.5 18q0 13-5 29t-17 29.5-31.5 22.5-49.5 9h-133v-97h-438v97zM955 310v-52q0-23 0.5-52t0.5-58-10.5-47.5-26-30-33-16-31.5-4.5q-14-1-29.5-0.5t-29.5 0.5h-32l-45 128h-439l-44-128h-63q-20 0-45 1-25 0-41 9.5t-25.5 23-13.5 29.5-4 30v167h911zM163 247q-12 0-21-8.5t-9-21.5 9-21.5 21-8.5q13 0 22 8.5t9 21.5-9 21.5-22 8.5zM316 123q-8-26-14-48-5-19-10.5-37t-7.5-25-3-15 1-14.5 9.5-10.5 21.5-4h365q23 0 34 12t2 38q-5 13-9.5 30.5t-9.5 34.5q-5 19-11 39h-368zM336 498v228q0 11 2.5 23t10 21.5 20.5 15.5 34 6h188q31 0 51.5-14.5t20.5-52.5v-227h-327z" />
<glyph unicode="&#x79;" glyph-name="x2" horiz-adv-x="1001" d="M281 543q-27-1-53-1h-83q-18 0-36.5-6t-32.5-18.5-23-32-9-45.5v-76h912v41q0 16-0.5 30t-0.5 18q0 13-5 29t-17 29.5-31.5 22.5-49.5 9h-133v-97h-438v97zM955 310v-52q0-23 0.5-52t0.5-58-10.5-47.5-26-30-33-16-31.5-4.5q-14-1-29.5-0.5t-29.5 0.5h-32l-45 128h-439l-44-128h-63q-20 0-45 1-25 0-41 9.5t-25.5 23-13.5 29.5-4 30v167h911zM163 247q-12 0-21-8.5t-9-21.5 9-21.5 21-8.5q13 0 22 8.5t9 21.5-9 21.5-22 8.5zM316 123q-8-26-14-48-5-19-10.5-37t-7.5-25-3-15 1-14.5 9.5-10.5 21.5-4h365q23 0 34 12t2 38q-5 13-9.5 30.5t-9.5 34.5q-5 19-11 39h-368zM336 498v228q0 11 2.5 23t10 21.5 20.5 15.5 34 6h188q31 0 51.5-14.5t20.5-52.5v-227h-327z" />
<glyph unicode="&#xe600;" glyph-name="uniE600" d="M327 820l431-356v300q0 15 10.5 25.5t25.5 10.5 25.5-10.5 10.5-25.5v-760q0-15-10.5-25.5t-25.5-10.5-25.5 10.5-10.5 25.5v301l-431-357q-21-18-46-7t-25 39v808q0 28 25 39t46-7z" />
<glyph unicode="&#xe601;" glyph-name="uniE601" d="M759 820l-431-356v300q0 15-10.5 25.5t-25.5 10.5-25.5-10.5-10.5-25.5v-760q0-15 10.5-25.5t25.5-10.5 25.5 10.5 10.5 25.5v301l431-357q21-18 46-7t25 39v808q0 28-25 39t-46-7z" />
<glyph unicode="&#xe602;" glyph-name="uniE602" d="M575 790l436-375q13-12 13-30t-13-29l-436-378q-18-17-40.5-6.5t-22.5 36.5v752q0 26 22.5 36.5t40.5-6.5zM63 790l436-375q13-12 13-30t-13-29l-436-378q-18-17-40.5-6.5t-22.5 36.5v752q0 26 22.5 36.5t40.5-6.5z" />
<glyph unicode="&#xe603;" glyph-name="uniE603" horiz-adv-x="1025" d="M449 790l-436-376q-13-11-13-29t13-30l436-377q18-17 40.5-6.5t22.5 36.5v752q0 26-22.5 36.5t-40.5-6.5zM961 790l-436-376q-13-11-13-29t13-30l436-377q18-17 40.5-6.5t22.5 36.5v752q0 26-22.5 36.5t-40.5-6.5z" />
<glyph unicode="&#xe604;" glyph-name="uniE604" d="M393 820l489-403q14-13 14-32t-14-32l-489-405q-21-18-46-7t-25 39v808q0 28 25 39t46-7z" />
<glyph unicode="&#xe605;" glyph-name="uniE605" d="M631 820l-489-403q-14-13-14-32t14-32l489-405q21-18 46-7t25 39v808q0 28-25 39t-46-7z" />
<glyph unicode="&#xe606;" glyph-name="uniE606" d="M76 504l403-489q13-15 32-15t32 15l405 489q18 20 7 45t-39 25h-808q-28 0-39-25t7-45z" />
<glyph unicode="&#xe607;" glyph-name="uniE607" d="M76 263l405 489q13 14 32 14t32-14l403-489q18-20 7-45.5t-39-25.5h-808q-28 0-39 25.5t7 45.5z" />
<glyph unicode="&#xe608;" glyph-name="uniE608" d="M512 895q-104 0-199-40.5t-163-109-109-163-41-199 41-199 109-163 163-109 199-40.5 199 40.5 163 109 109 163 41 199-41 199-109 163-163 109-199 40.5zM681 358l-235-220q-11-11-26-10.5t-25 11.5-9.5 26 11.5 25l207 194-207 195q-11 10-11.5 25t9.5 26 25 11.5 26-9.5l235-221q12-11 12-26.5t-12-26.5z" />
<glyph unicode="&#xe609;" glyph-name="uniE609" d="M512 895q-104 0-199-40.5t-163-109-109-163-41-199 41-199 109-163 163-109 199-40.5 199 40.5 163 109 109 163 41 199-41 199-109 163-163 109-199 40.5zM629 139q-10-11-25-11.5t-26 9.5l-235 221q-12 11-12 26.5t11 26.5l236 220q11 11 26 10.5t25-11.5 9.5-26-11.5-25l-207-195 207-194q11-10 11.5-25t-9.5-26z" />
<glyph unicode="&#xe60a;" glyph-name="uniE60A" d="M512 895q-104 0-199-40.5t-163-109-109-163-41-199 41-199 109-163 163-109 199-40.5 199 40.5 163 109 109 163 41 199-41 199-109 163-163 109-199 40.5zM757 278.5q-11-10.5-25.5-10t-24.5 11.5l-195 208-195-208q-10-11-25-11.5t-25.5 10-11 25 9.5 25.5l221 236q10 11 26 11t26-11l221-236q10-11 9.5-25.5t-11.5-25z" />
<glyph unicode="&#xe60b;" glyph-name="uniE60B" d="M512 895q-104 0-199-40.5t-163-109-109-163-41-199 41-199 109-163 163-109 199-40.5 199 40.5 163 109 109 163 41 199-41 199-109 163-163 109-199 40.5zM759 430l-221-236q-10-11-26-11t-26 11l-221 236q-10 11-9.5 25.5t11 25 25.5 10 25-11.5l195-208 195 208q10 11 24.5 11.5t25.5-10 11.5-25-9.5-25.5z" />
<glyph unicode="&#xe60c;" glyph-name="uniE60C" d="M511.5 823q89.5 0 171.5-34 79-34 140-95t94-139q35-82 35-171.5t-35-171.5q-33-78-94-139t-140-95q-81-34-170.5-34t-171.5 34q-79 34-140 95t-94 139q-35 82-35 171.5t35 171.5q33 78 94 139t140 95q81 34 170.5 34zM512 895q-104 0-199-40.5t-163-109-109-163-41-199 41-199 109-163 163-109 199-40.5 199 40.5 163 109 109 163 41 199-41 199-109 163-163 109-199 40.5zM681 411l-235 220q-11 11-26 10.5t-25-11.5-9.5-26 11.5-25l207-195-207-194q-11-10-11.5-25t9.5-26 25-11.5 26 9.5l235 221q12 11 12 26.5t-12 26.5z" />
<glyph unicode="&#xe60d;" glyph-name="uniE60D" d="M511.5 823q89.5 0 171.5-34 79-34 140-95t94-139q35-82 35-171.5t-35-171.5q-33-78-94-139t-140-95q-81-34-170.5-34t-171.5 34q-79 34-140 95t-94 139q-35 82-35 171.5t35 171.5q33 78 94 139t140 95q81 34 170.5 34zM512 895q-104 0-199-40.5t-163-109-109-163-41-199 41-199 109-163 163-109 199-40.5 199 40.5 163 109 109 163 41 199-41 199-109 163-163 109-199 40.5zM331 384.5q0-15.5 12-26.5l235-221q11-10 26-9.5t25 11.5 9.5 26-11.5 25l-207 194 207 195q11 10 11.5 25t-9.5 26-25 11.5-26-10.5l-236-220q-11-11-11-26.5z" />
<glyph unicode="&#xe60e;" glyph-name="uniE60E" d="M511.5 823q89.5 0 171.5-34 79-34 140-95t94-139q35-82 35-171.5t-35-171.5q-33-78-94-139t-140-95q-81-34-170.5-34t-171.5 34q-79 34-140 95t-94 139q-35 82-35 171.5t35 171.5q33 78 94 139t140 95q81 34 170.5 34zM512 895q-104 0-199-40.5t-163-109-109-163-41-199 41-199 109-163 163-109 199-40.5 199 40.5 163 109 109 163 41 199-41 199-109 163-163 109-199 40.5zM512 576q-16 0-26-11l-221-236q-10-11-9.5-25.5t11-25 25.5-10 25 11.5l195 208 195-208q10-11 24.5-11.5t25.5 10 11.5 25-9.5 25.5l-221 236q-10 11-26 11z" />
<glyph unicode="&#xe60f;" glyph-name="uniE60F" d="M511.5 823q89.5 0 171.5-34 79-34 140-95t94-139q35-82 35-171.5t-35-171.5q-33-78-94-139t-140-95q-81-34-170.5-34t-171.5 34q-79 34-140 95t-94 139q-35 82-35 171.5t35 171.5q33 78 94 139t140 95q81 34 170.5 34zM512 895q-104 0-199-40.5t-163-109-109-163-41-199 41-199 109-163 163-109 199-40.5 199 40.5 163 109 109 163 41 199-41 199-109 163-163 109-199 40.5zM512 183q-16 0-26 11l-221 236q-10 11-9.5 25.5t11 25 25.5 10 25-11.5l195-208 195 208q10 11 24.5 11.5t25.5-10 11.5-25-9.5-25.5l-221-236q-10-11-26-11z" />
<glyph unicode="&#xe610;" glyph-name="uniE610" d="M273 78l382 307-380 305q-14 11-16 29t9.5 32 29.5 16 32-9l358-288v262q0 15 10.5 25.5t25.5 10.5h8q15 0 25.5-10.5t10.5-25.5v-696q0-15-10.5-25.5t-25.5-10.5h-8q-15 0-25.5 10.5t-10.5 25.5v264l-360-290q-12-10-27-10-21 0-35 17-11 14-9 32t16 29z" />
<glyph unicode="&#xe611;" glyph-name="uniE611" d="M752 78l-382 307 380 305q14 11 16 29t-9.5 32-29.5 16-32-9l-358-288v262q0 15-10.5 25.5t-25.5 10.5h-8q-15 0-25.5-10.5t-10.5-25.5v-696q0-15 10.5-25.5t25.5-10.5h8q15 0 25.5 10.5t10.5 25.5v264l360-290q12-10 27-10 21 0 34 17 12 14 10 32t-16 29z" />
<glyph unicode="&#xe612;" glyph-name="uniE612" d="M811.5 471.5q-88.5 88.5-213.5 88.5h-336l114 114q12 12 12 28.5t-12 28-28.5 11.5-28.5-12l-183-183q-12-12-12-28.5t12-28.5l178-178q12-12 28.5-12t28 11.5 11.5 28-11 28.5l-113 112h340q92 0 157-65t65-157v-192q0-17 12-28.5t28.5-11.5 28 11.5 11.5 28.5v192q0 125-88.5 213.5z" />
<glyph unicode="&#xe613;" glyph-name="uniE613" d="M366 579h349l-119-119q-11-11-11-26t10.5-25.5 25.5-10.5 25 11l179 178q11 11 11 25.5t-11 25.5l-184 184q-10 10-25 10t-25.5-10.5-10.5-25.5 10-25l120-120h-344q-124 0-211.5-87.5t-87.5-211.5q0-15 10.5-25.5t25.5-10.5 25.5 10.5 10.5 25.5q0 94 66.5 160.5t160.5 66.5zM923 455q-15 0-25.5-10.5t-10.5-25.5q0-94-66.5-160.5t-160.5-66.5h-349l120 120q10 10 10 25t-10.5 25.5-25.5 10.5-25-11l-179-178q-10-11-10-25.5t10-25.5l184-184q10-10 25-10t25.5 10.5 10.5 25.5-10 25l-120 120h344q124 0 211.5 87.5t87.5 211.5q0 15-10.5 25.5t-25.5 10.5z" />
<glyph unicode="&#xe614;" glyph-name="uniE614" d="M109 247h211l-232-232q-13-13-13-31t13-31 31-13 31 13l236 236v-210q0-18 13-31t31-13 31 13 13 31v312q0 19-13 31.5t-31 12.5h-321q-18 0-31-12.5t-13-31 13-31.5 31-13zM595 431h321q18 0 31 13t13 31-13 31-31 13h-211l232 232q13 13 13 31.5t-13 31-31 12.5-31-12l-236-236v209q0 18-13 31t-31 13-31-13-13-31v-312q0-18 13-31t31-13z" />
<glyph unicode="&#xe615;" glyph-name="uniE615" d="M430 23h-211l232 232q13 13 13 31.5t-13 31-31 12.5-31-12l-236-236v209q0 18-13 31t-31 13-31-13-13-31v-312q0-18 13-31t31-13h321q18 0 31 13t13 31-13 31-31 13zM916 831h-321q-18 0-31-13t-13-31 13-31 31-13h211l-232-232q-13-13-13-31t13-31 31-13 31 13l236 236v-210q0-18 13-31t31-13 31 13 13 31v312q0 18-13 31t-31 13z" />
<glyph unicode="&#xe616;" glyph-name="uniE616" d="M853 358q-16 0-27-11.5t-11-26.5q0-126-88.5-214.5t-214.5-88.5-214.5 88.5-88.5 214 88.5 214.5 214.5 89h1l-66-86q-10-13-8-28.5t15-24.5q10-8 23-8 18 0 30 15l118 155q10 12 8 27.5t-15 24.5l-157 121q-12 10-27.5 7.5t-25-14.5-7.5-27.5 14-25.5l80-61q-68-3-130-29-68-29-120.5-81.5t-81.5-120.5q-29-70-29-147t29-148q29-67 81.5-119.5t120.5-81.5q70-30 147-30t148 30q67 29 119.5 81t81.5 120q30 71 30 148 0 15-11 26.5t-27 11.5z" />
<glyph unicode="&#xe617;" glyph-name="uniE617" d="M431 17q-11 14-9 32t16 29l381 307-379 305q-14 11-16 29t9 32 29 16 32-9l422-339q17-13 17-34t-17-34l-424-341q-12-10-27-10-21 0-34 17zM101 17q-11 14-9 32t16 29l381 307-379 305q-14 11-16 29t9 32 29 16 32-9l422-339q17-13 17-34t-17-34l-424-341q-12-10-27-10-21 0-34 17z" />
<glyph unicode="&#xe618;" glyph-name="uniE618" d="M559 0q-15 0-27 10l-424 341q-17 13-17 34t17 34l422 339q14 11 32 9t29-16 9-32-16-29l-379-305 381-307q14-11 16-29t-9-32q-13-17-34-17zM889 0q-15 0-27 10l-424 341q-17 13-17 34t17 34l422 339q14 11 32 9t29-16 9-32-16-29l-379-305 381-307q14-11 16-29t-9-32q-13-17-34-17z" />
<glyph unicode="&#xe619;" glyph-name="uniE619" d="M558 725v-574l208 216q13 14 31 14t31.5-12.5 13.5-30.5-12-32l-284-294q-13-14-31.5-14t-31.5 14l-285 296q-12 13-12 30 0 19 14 32 13 13 31 12.5t31-13.5l208-216v573q0 17 12 30t29 14q19 1 33-12.5t14-32.5z" />
<glyph unicode="&#xe61a;" glyph-name="uniE61A" d="M470 43v574l-208-216q-13-14-31-14t-31.5 12.5-13.5 30.5 12 32l284 294q13 14 31.5 14t31.5-14l285-296q12-13 12-30 0-19-14-32-13-13-31-12.5t-31 13.5l-208 216v-573q0-17-12-30t-29-14q-19-1-33 12.5t-14 32.5z" />
<glyph unicode="&#xe61b;" glyph-name="uniE61B" d="M173 428h574l-216 208q-14 13-14 31t12.5 31.5 30.5 13.5 32-12l294-284q14-13 14-31.5t-14-31.5l-296-285q-13-12-30-12-19 0-32 14-13 13-12.5 31t13.5 31l216 208h-573q-17 0-30 12t-14 29q-1 19 12.5 33t32.5 14z" />
<glyph unicode="&#xe61c;" glyph-name="uniE61C" d="M855 428h-574l216 208q14 13 14 31t-12.5 31.5-30.5 13.5-32-12l-294-284q-14-13-14-31.5t14-31.5l296-285q13-12 30-12 19 0 32 14 13 13 12.5 31t-13.5 31l-216 208h573q17 0 30 12t14 29q1 19-12.5 33t-32.5 14z" />
<glyph unicode="&#xe61d;" glyph-name="uniE61D" d="M896 596q0-15-10-28l-341-423q-13-17-34-17t-34 17l-339 422q-11 14-9 32t16 29 32 9 29-16l305-379 307 381q11 14 29 16t32-9q17-13 17-34z" />
<glyph unicode="&#xe61e;" glyph-name="uniE61E" d="M896 236q0 15-10 28l-341 423q-13 17-34 17t-34-17l-339-422q-11-14-9-32t16-29 32-9 29 16l305 379 307-381q11-14 29-16t32 9q17 13 17 34z" />
<glyph unicode="&#xe61f;" glyph-name="xinzengrenyuan" d="M837 9v-137h-130v137h-130v136h130v137h130v-137h130v-136h-130zM447 9q0-28 7-69h-396q-1 14-1 27v1q0 138 52 255.5t142 185.5 196 68q125 0 228-97-103-50-165.5-150t-62.5-221zM450.5 529q-81.5 0-139 54t-57.5 130 57.5 129.5 139 53.5 139.5-53.5 58-129.5-58-130-139.5-54z" />
<glyph unicode="&#xe620;" glyph-name="chanpinguanli" d="M531-128v544l493 217v-518zM3 669l507 227 513-226-512-226zM495-128l-495 243v518l495-217v-544zM152 432l-1-73 190-92 2 73z" />
<glyph unicode="&#xe621;" glyph-name="gongyingshangguanli" d="M1024 66q-101-21-204-42l-136-152-147 250q-18-1-25-1-4 0-12.5 0.5t-12.5 0.5l-147-250-136 152-204 42 159 272q-16 33-28 83t-12 88q0 105 52.5 194t143 141 197.5 52 197.5-52 143-141 52.5-194q0-90-40-171zM512 832q-87 0-160.5-43t-116.5-116.5-43-160.5v0 0q0-87 43-160.5t116.5-116.5 160.5-43 160.5 43 116.5 116.5 43 160.5v0 0q0 87-43 160.5t-116.5 116.5-160.5 43zM512 311q-91 0-155 64t-64 155v0q0 91 64 155.5t155 64.5 155-64.5 64-154.5v-1q0-91-64-155t-155-64z" />
<glyph unicode="&#xe622;" glyph-name="jiagouguanli" horiz-adv-x="1260" d="M1219 131h-101v244q0 10-7.5 17.5t-17.5 7.5h-1l-432 1v108h222q18 0 30 12.5t12 29.5v0 303q0 17-12 29.5t-30 12.5h-505q-17 0-29-12.5t-12-29.5v0-303q0-17 12-29.5t29-12.5h222v-108h-432q-10 0-17.5-7t-7.5-18v0-245h-101q-17 0-29-12t-12-29v-176q0-17 12-29.5t29-12.5h264q17 0 29 12.5t12 29.5v0 176q0 17-12 29t-29 12h-101v207h395v-207h-101q-17 0-29.5-12t-12.5-29v-176q0-17 12.5-29.5t29.5-12.5h264q17 0 29 12.5t12 29.5v0 176q0 17-12 29t-29 12h-102v207l396-1v-206h-101q-17 0-29-12t-12-29v-176q0-17 12-29.5t29-12.5h264q17 0 29 12.5t12 29.5v0 176q0 17-12 29t-29 12z" />
<glyph unicode="&#xe623;" glyph-name="jiaose" horiz-adv-x="1107" d="M1005 87q-30 23-97.5 58.5t-119.5 58.5l-51 24-130-235-19 56 35 71-70 70-71-70 35-71-23-57-126 236q-199-88-268-141-20-15-37-43t-28.5-56.5-19.5-55.5-11.5-43-3.5-17h1107q-1 6-3 16.5t-9.5 40.5-18 55.5-29.5 55-42 47.5zM559 248q58 0 110.5 35t86.5 86.5 54 107.5 20 100q0 34-0.5 54.5t-6 58-15 61.5-29.5 54.5-48 48-72 30-100 12.5-100-12.5-72-30-48-48-29.5-54.5-14.5-61.5-6-58-1-54.5q0-35 12.5-78.5t36.5-87.5 56-80.5 76-59.5 90-23z" />
<glyph unicode="&#xe624;" glyph-name="jiaoseguanli" horiz-adv-x="1194" d="M1171 651l-221 222q-10 9-26.5 16t-30.5 7h-131l-8-5q-68-37-157.5-37t-156.5 37l-8 5h-119q-20 0-40.5-12.5t-30.5-29.5l-219-219q-9-10-16-26.5t-7-29.5v-1q0-33 23-56l160-160q21-21 50-23v-386q0-34 23.5-57.5t57.5-23.5h566q34 0 57.5 23.5t23.5 57.5v402q29 3 50 23l160 160q10 10 17 26.5t7 30-7 30.5-17 26z" />
<glyph unicode="&#xe625;" glyph-name="qunzuguanli" d="M329.5 457q-71.5 0-129.5-23t-96-63.5-61-92.5-30-114q-2-12-5-37-4-31-5.5-46.5t-2-42.5 3.5-40.5 13.5-34.5 25.5-32 41-24 59-19.5 81-11 105-4.5 105 4.5 81 11 59 19.5 41.5 24 25.5 31.5 13.5 34.5 4 41-2.5 42.5l-6 46.5q-3 25-5 37-7 62-29.5 114t-61 92.5-96 63.5-129 23zM1013 201q-14 112-85.5 184t-196.5 72h-3q-28 0-65.5-8.5t-62.5-20.5q100-96 118-255l5-36q8-41 8-96t-17-95q1 0 7.5-0.5t9.5-0.5q114 0 180.5 17.5t87.5 47.5 25 71-7 88q-3 21-4 32zM329 530v0q76 0 129.5 53.5t53.5 129.5-53.5 129.5-129.5 53.5v0q-76 0-129.5-53.5t-53.5-129.5 53.5-129.5 129.5-53.5zM731 530q61 0 104 43t43 103.5-43 103.5-103.5 43-103.5-43-43-103.5 43-103.5 103-43v0 0z" />
<glyph unicode="&#xe626;" glyph-name="quanxianguanli" d="M512 590q-34 0-57.5-19.5t-23.5-47.5 23.5-48 57.5-20 57.5 20 23.5 48-23.5 47.5-57.5 19.5zM852 803q-190 0-340 93-150-93-340-93-69 1-135 20v-444q0-63 51-146 53-86 150-176 87-81 185-143 36-22 69-39 14-7 29 1 32 17 69 40 42 27 97.5 69t92.5 75q101 91 155 177 52 82 52 142v444q-66-19-135-20zM563 343v-194q0-17-15-29.5t-36-12.5-36 12.5-15 29.5v194q-74 15-122.5 65t-48.5 115q0 76 65 130t157 54 157-54 65-130q0-65-48.5-115t-122.5-65z" />
<glyph unicode="&#xe627;" glyph-name="renyuanguanli" d="M939 99l-226 88q-43 17-60 33-16 16-1 68 3 9 24 40.5t43 66.5 40.5 83.5 18.5 88.5q0 89-36 165t-97.5 120-134 44-134-44-97-120-35.5-165q0-39 17-87t35.5-81 40.5-67 23-37q9-18 8-41t-9-31q-4-5-13-10.5t-18.5-9.5-18.5-7.5-14.5-5l-5.5-1.5-204-91q-37-13-61-44.5t-24-68.5v-24q0-40 28.5-64.5t71.5-24.5h824q43 0 71.5 24.5t28.5 64.5v24q0 37-24.5 69t-60.5 45z" />
<glyph unicode="&#xe628;" glyph-name="rili" d="M905-128h-788q-48 0-82.5 33.5t-34.5 80.5v684q0 47 35 80.5t84 33.5h84v-60h-88q-21 0-37-15t-16-35v-159h899v159q0 20-15.5 35t-37.5 15h-87v60h84q49 0 84-33.5t35-80.5v-684q0-47-35-80.5t-84-33.5zM961 455h-899v-472q0-21 16-36t37-15h793q22 0 37.5 15t15.5 36v472zM769 253q-28 0-47.5 19t-19.5 45.5 19.5 45 47.5 18.5 47.5-18.5 19.5-45-19.5-45.5-47.5-19zM511 6q-28 0-47.5 19t-19.5 45.5 19.5 45 47.5 18.5 47.5-18.5 19.5-45-19.5-45.5-47.5-19zM511 253q-28 0-47.5 19t-19.5 45.5 19.5 45 47.5 18.5 47.5-18.5 19.5-45-19.5-45.5-47.5-19zM252.5 253q-27.5 0-47 19t-19.5 45.5 19.5 45 47 18.5 47-18.5 19.5-45-19.5-45.5-47-19zM251.5 134q27.5 0 47-18.5t19.5-45-19.5-45.5-47-19-47 19-19.5 45.5 19.5 45 47 18.5zM722 612q-18 0-30.5 12t-12.5 29v202q0 17 12.5 29t30.5 12 31-12 13-29v-202q0-17-13-29t-31-12zM398 784h228v-60h-228v60zM300 612q-18 0-30.5 12t-12.5 29v202q0 17 12.5 29t30.5 12 31-12 13-29v-202q0-17-13-29t-31-12z" />
<glyph unicode="&#xe629;" glyph-name="kefu" d="M1024 296q0-27-18.5-45.5t-45.5-18.5v0q-27 0-48.5 19t-21.5 45v82q-2 18 2.5 29.5t16 17 21 7.5 25.5 3q-23 161-149 269t-294 108q-166 0-280.5-106.5t-137.5-270.5q47-3 47-57l-7-82q0-26-21.5-45t-48.5-19v0q-27 0-45.5 18.5t-18.5 45.5v94q0 103 40.5 197t109 161.5 163.5 107.5 199 40 199-40 163.5-107.5 109-161.5 40.5-197v-94zM373 106q-76 38-121.5 110.5t-45.5 159.5q0 125 90 213.5t216.5 88.5 216.5-88.5 90-213.5q0-86-45-158t-120-111q65-19 138.5-73t111.5-111q5-7 5-15 0-15-12-23-32-21-50 0-83 93-161 142.5t-174 49.5q-50 0-95.5-14t-86.5-42-74-59.5-71-75.5q-7-8-13.5-11.5t-12-2.5-8.5 2-9 6-7 5q-12 9-12 23 0 9 4 16 38 55 110 108.5t136 73.5zM751 384q0 99-70 169t-169 70v0 0q-99 0-169-70t-70-169 70-169 169-70v0q99 0 169 70t70 169z" />
<glyph unicode="&#xe62a;" glyph-name="shanghushenhe" d="M512 896q-104 0-198.5-40.5t-163.5-109.5-109.5-163.5-40.5-198.5 40.5-198.5 109.5-163.5 163.5-109.5 198.5-40.5q138 0 256 68.5t187 186.5 69 257-69 257-187 186.5-256 68.5zM806 302h-291q-25 0-42 17.5t-17 41.5v292q1 23 18 40t40.5 17 41-17 18.5-40v-233h232q25 0 42-17.5t17-41.5-17-41.5-42-17.5v0z" />
<glyph unicode="&#xe62b;" glyph-name="shangdan" horiz-adv-x="1097" d="M930 896h-763q-69 0-118-47.5t-49-113.5v-702q0-66 49-113.5t118-47.5h763q69 0 118 47.5t49 113.5v702q0 67-47.5 114t-119.5 47zM1016 28q0-35-24.5-59t-61.5-24h-763q-37 0-61.5 24t-24.5 59v707q0 35 24.5 59t61.5 24h763q37 0 61.5-24t24.5-59v-707zM403 641l-118-114-54 52q-12 12-28.5 12t-25.5-12q-12-12-12-28t12-24l87-83q10-11 32-11 7 0 11 1.5t9.5 4.5 11.5 5l145 140q12 12 12 28t-12 24q-44 22-70 5zM898 579h-371q-38 0-38-36.5t38-36.5h371q38 0 38 37 0 15-11 25.5t-27 10.5zM307 345q-53 0-88.5-34.5t-35.5-85 35.5-85 88-34.5 88 34.5 35.5 84.5q0 53-36.5 86.5t-86.5 33.5zM307 189q-21 0-32 11t-11 30.5 11 30.5 31.5 11 32-11 11.5-30-13-30.5-30-11.5zM898 267h-371q-38 0-38-36 0-16 11-26.5t27-10.5h371q38 0 38 37 0 15-11 25.5t-27 10.5z" />
<glyph unicode="&#xe62c;" glyph-name="shanghu" horiz-adv-x="1097" d="M1087 568q-1 5-3 9l-92 239q-12 37-44 58.5t-73 21.5h-650q-41 0-71-21t-42-57l-100-243q-1-3-1-6-11-35-11-71 0-62 31-115.5t84-82.5v0 0 0q45-25 103-25 48 0 91.5 21.5t74.5 59.5q26-33 74.5-56.5t90.5-23.5q48 0 91 21t73 59q27-33 75.5-56.5t91.5-23.5q59 0 104 25 52 30 82.5 83t30.5 115v1q0 35-10 68zM946 373q-27-15-66-15-36 0-67.5 18t-50.5 50q-4 9-11 17-14 17-37 17-25 0-39-17-5-7-10-17-19-32-50-50t-66-18q-36 0-67 18t-50 50q-5 10-9 16-14 16-39.5 16.5t-37.5-15.5q-7-8-11-18-19-32-50-50t-67-18q-39 0-65 15v0q-34 19-54 53t-20 73q0 24 8 47 0 2 1 4l98 240q8 25 38 25h652q33-2 41-26l92-237q1-3 2-5 7-23 7-47 0-39-19.5-73t-52.5-53zM975.5 242q-16.5 0-28-12t-11.5-29v-224q0-9-6.5-15.5t-15.5-7.5h-744q-10 0-16.5 6.5t-6.5 15.5v220q0 17-11.5 29t-27.5 12h-1q-16 0-27.5-12t-11.5-29v-219q0-44 30-74.5t72-30.5h744q42 1 71.5 31.5t29.5 74.5v223q0 17-11.5 29t-28 12zM858 528h-633q-16 0-27.5 12t-11.5 29 11.5 29 27.5 12h633q17 0 28.5-12t11.5-29-11.5-29-28.5-12z" />
<glyph unicode="&#xe62d;" glyph-name="shezhi" horiz-adv-x="1139" d="M1127 488q0 19-14 32.5t-43 13.5q-27 0-59.5 17t-53.5 37q-20 26-26.5 63t10.5 69q8 13 8.5 27.5t-5 26.5-10.5 19-9 12q-8 7-70 39.5t-84 37.5q-17 10-36 10-26 0-45-18l-7.5-7.5t-12-11.5-16-12.5-20-13-23-10.5-27.5-7q-17-2-34.5 3t-29 13-32.5 23-33 23q-22 18-43 20.5t-30.5-2-15.5-10.5l-138-70q-9-4-17-15t-12-29 5-41q12-29 12-50t-12-50q-26-65-114-93-4 0-15 1t-17.5 0.5-16-3.5-17.5-12-15-25q-10-47-8.5-117.5t8.5-106.5q6-28 23-40t42-6q23 0 57.5-14t56.5-40q19-26 25-53.5t3-48-12-37.5q-11-24-4.5-47.5t20.5-30.5q4-2 56.5-29t81.5-40q18-11 37-11.5t30.5 5 21.5 13.5q73 70 121 70 57 0 130-70 16-15 43-18.5t38 3.5q65 33 129 70 61 28 41 85-12 34-12 61t12 62q12 29 47.5 53.5t65.5 24.5q34 0 51 10.5t22 43.5q6 48 2.5 114.5t-10.5 86.5zM1050 289h-8q-50-6-99.5-38t-66.5-75q-31-80-8-158-8-7-16-7-9-5-56.5-30.5t-61.5-30.5h-8q-87 83-174 83-63 0-149-83-8 0-16 8-59 22-119 60v8q11 20 16.5 44t-2.5 67-37 84q-28 38-74 60.5t-84 22.5q-8 38-8 75 0 27 2 47.5t4 31 2 12.5h24q24 5 53.5 17.5t63.5 42.5 48 68q9 26 12.5 44t1.5 42-14 49v15q16 10 47 25.5t53.5 27.5 26.5 15h15q32-25 50-37.5t48.5-25 59.5-12.5h16q76 12 142 75h8q48-23 95-53 5-2 12-4.5t11.5-4.5 7.5-6q-22-52-14.5-106t38.5-89q25-31 69-53.5t89-22.5q7-28 8.5-85.5t-8.5-102.5zM568.5 580q-85.5 0-148-59.5t-62.5-141 62.5-141 148-59.5 147.5 59.5 62 141-62 141-147.5 59.5zM568.5 256q-54.5 0-92 35.5t-37.5 88 37.5 88 92 35.5 92-35.5 37.5-88-37.5-88-92-35.5z" />
<glyph unicode="&#xe62e;" glyph-name="shanghubiaoji" d="M1024 286q0-34-23-57l-334-334q-6-3-15-8t-14-8-12.5-5-15.5-2q-35 0-58 23l-483 483q-34 35-46 69-3 9-8 23.5t-8 22-5 17.5-2 18v287q0 35 23 58t58 23h287q8 0 18-2t17.5-5 22-8 23.5-8q55-18 69-46l483-483q23-23 23-58zM276 620q23 23 23 57.5t-23 57.5q-10 9-27 16t-30 7q-35 0-58-23-9-10-16-27t-7-31q0-34 23-57t58-23q34 0 57 23z" />
<glyph unicode="&#xe62f;" glyph-name="wodeshanghu" d="M74-128h-1q-14 0-24.5 10t-10.5 25v66q0 140 81 255.5t218 167.5l20 8-17 13q-51 38-79 93.5t-28 117.5q0 111 82 189.5t197.5 78.5 197.5-78.5 82-189.5q0-62-28-117.5t-79-93.5l-18-13 21-8q136-52 217.5-167.5t81.5-255.5v-66q0-15-10.5-25t-25.5-10h-877zM512 357h-84l56-54-56-269 84-81 84 81-56 269 56 54h-84z" />
<glyph unicode="&#xe630;" glyph-name="shenhe" d="M923 625q-26 0-33 18.5t-7 70.5q0 47-6 64t-28 33q-9 7-58.5 8t-307.5 1q-256 0-307.5-1t-63.5-8q-15-9-26-30-10-20-10-44v-727l10-21q10-19 20.5-26t36-10.5 91.5-4.5q100-3 113-10 11-6 11-29 0-16-7-23-9-9-30-11.5t-76-2.5h-15q-100 0-124 7-33 9-59.5 34.5t-38.5 59.5q-5 15-6.5 87t-1.5 325v47q0 280 4 331t30 80l4 4q20 24 45.5 36.5t54.5 12.5v0h676q36 0 67-16 16-8 49-47 26-30 27-69v-37q1-49-0.5-67.5t-9.5-26.5q-7-8-24-8zM209 203q-10 29-12 48t-2 71 2 71 12 48q27 83 96 152 37 37 71.5 59t80.5 37q28 10 47 12t71 2 71-2 47-12q46-15 80.5-37t71.5-59q57-57 83-116t29-136q3-69-12-124t-50-108l-22-32 72-73q79-79 79-93t-16-27q-15-11-22-11-4 0-13 3-8 3-83 77l-70 69-38-24q-44-28-90-43-31-10-49.5-12.5t-70.5-2.5-70 2.5-49 14.5q-48 16-79.5 36.5t-68.5 57.5q-68 69-96 152zM437 48q98-49 202-27 77 16 137.5 69t89.5 131q9 25 11 41t2.5 57.5-1.5 58.5-12 44q-19 55-57 99.5t-88 71.5q-35 18-60.5 25.5t-63.5 10.5q-14 1-28 1-66 0-130-32-75-38-121-108-27-40-37.5-76.5t-10.5-91.5q0-40 2.5-56.5t11.5-43.5q17-49 61.5-100t91.5-74zM485 555v0q13 0 24-12 12-13 10-30-2-11-9.5-19.5t-24.5-19.5q-46-31-69-76-13-26-33-29-3-1-5-1v0q-14 0-27 12-13 15-12.5 25.5t13.5 34.5q18 37 62 75.5t71 39.5zM590 142q63 8 106 47 46 42 58 114 6 33 13.5 44t29.5 9q17-1 26-12 13-17 5-62-13-80-67-137t-130-73q-34-8-48-8h-2q-15 0-27 9-13 9-14.5 27t9.5 29q9 9 41 13z" />
<glyph unicode="&#xe631;" glyph-name="shoujihao" d="M459 22.5q0 21.5 15.5 37t37.5 15.5 37.5-15.5 15.5-37-15.5-37-37.5-15.5v0 0q-22 0-37.5 15.5t-15.5 37zM853 817v-866q0-33-23-56t-56-23h-524q-33 0-56 23t-23 56v866q0 33 23 56t56 23h524q33 0 56-23t23-56zM800 111h-576v-160q0-11 7.5-18.5t18.5-7.5h524q11 0 18.5 7.5t7.5 18.5v160zM800 817q0 11-7.5 18.5t-18.5 7.5v0h-524q-11 0-18.5-7.5t-7.5-18.5v-649h576v649z" />
<glyph unicode="&#xe632;" glyph-name="xiaoshou" d="M267 282q-19 0-32.5-18.5t-13.5-44.5v-68q0-26 13.5-44t32.5-18 32.5 18 13.5 44v68q0 26-13.5 44.5t-32.5 18.5zM530 139v244q0 21-13.5 36t-33 15-33-15-13.5-36v-244q0-21 13.5-35.5t33-14.5 33 14.5 13.5 35.5zM35 696h81v-84q0-15 10.5-25.5t24.5-10.5 24.5 10.5 10.5 25.5v84h81q14 0 24.5 11t10.5 25.5-10.5 25.5-24.5 11h-81v85q0 14-10.5 25t-24.5 11-24.5-11-10.5-25v-85h-81q-14 0-24.5-11t-10.5-25.5 10.5-25.5 24.5-11zM762 151v437q0 26-13.5 44.5t-32.5 18.5-32.5-18.5-13.5-44.5v-437q0-26 13.5-44t32.5-18 32.5 18 13.5 44zM707 896h-172q-16 0-27.5-12t-11.5-28.5 11.5-28.5 27.5-12h346q27 0 46-19.5t19-48.5v-726q0-29-19-48.5t-46-19.5h-738q-27 0-46 19.5t-19 48.5v359q0 16-11.5 28t-27 12-27.5-12-12-28v-359q0-61 42.5-105t100.5-44h738q58 0 100.5 44t42.5 105v726q0 61-42.5 105t-100.5 44h-174z" />
<glyph unicode="&#xe633;" glyph-name="dianpu" horiz-adv-x="1129" d="M177 896h776q22 0 37.5-15.5t15.5-37.5-15.5-37.5-37.5-15.5h-776q-22 0-37.5 15.5t-15.5 37.5 15.5 37.5 37.5 15.5zM1024-75q0-22-16-37.5t-37-15.5h-812q-22 0-37.5 15.5t-15.5 37.5v356q18-3 35-3 8 0 18 1v0q6 1 15 2h1.5t1.5 1l7 1q14 3 28 9v-261h706v261q12-5 28-9l6-1q1-1 2-1h2q9-1 15-2v0 0q9-1 17-1 18 0 36 3v-356zM988.5 331q-58.5 0-100 41.5t-41.5 99.5q0-58-41.5-99.5t-100-41.5-99.5 41.5-41 99.5q0-58-41.5-99.5t-100-41.5-100 41.5-41.5 99.5q0-58-41-99.5t-99.5-41.5-100 41.5-41.5 99.5l99 265h931l99-265q0-58-41-99.5t-99.5-41.5z" />
<glyph unicode="&#xe634;" glyph-name="biaojiweiziji" d="M1011 602l-281 281q-13 13-31.5 13t-31.5-13q-3-2-6.5-6t-11.5-15-15-23-14-30-10.5-36-3-40.5 6.5-44.5l-127-128q-26 8-54 13.5t-72 7.5-84.5-5.5-87.5-30-84-60.5q-13-13-13-31.5t13-31.5l191-191-282-283q-13-13-13-31.5t13-31.5 31.5-13 31.5 13l282 283 192-192q13-13 31.5-13t31.5 13q38 37 60.5 84t29.5 87.5 5.5 84.5-7 72-13.5 54l127 127q23-6 45.5-6.5t40.5 3 36 10.5 29.5 14 23 15 15 11.5l6.5 6.5q13 13 13 31.5t-13 31.5zM823 577q-9 4-19 4-18 0-31-13l-168-167q-13-13-13-31 0-9 4-17 20-55 23-115 5-97-40-165l-378 378q34 23 75 33t72.5 9 65-7 46-10.5 21.5-7.5q27-11 48 10l167 167q13 13 13 31 0 10-4 19-19 42 0 87l205-205q-45-19-87 0zM559 336q16-34 14-70 0-16-11.5-27t-26.5-11v0h-2q-15 1-26 12.5t-11 26.5v1q-1 19-8 37-3 7-3 15 0 11 6.5 21.5t16.5 14.5q7 3 16 3 10 0 20.5-6.5t14.5-16.5z" />
<glyph unicode="&#xe635;" glyph-name="uniE61F" d="M301 0q15 0 27 10l424 341q16 13 16 34t-16 34l-422 339q-14 11-32 9t-29.5-16-9.5-32 16-29l380-305-382-307q-14-11-16-29t9-32q14-17 35-17z" />
<glyph unicode="&#xe636;" glyph-name="uniE620" d="M724 0q-15 0-27 10l-424 341q-16 13-16 34t16 34l422 339q14 11 32 9t29.5-16 9.5-32-16-29l-380-305 382-307q14-11 16-29t-10-32q-13-17-34-17z" />
<glyph unicode="&#xe637;" glyph-name="uniE621" d="M888 760v0-753h-752v753h752zM888 832h-752q-30 0-51-21t-21-51v-753q0-29 21-50.5t51-21.5h753q29 0 50.5 21.5t21.5 50.5v753q0 30-21.5 51t-51.5 21zM732 347h-442q-14 0-25 10.5t-11 25.5 11 25.5 25 10.5h442q14 0 25-10.5t11-25.5-11-25.5-25-10.5z" />
<glyph unicode="&#xe638;" glyph-name="uniE622" d="M512 896q-139 0-257-68.5t-186.5-186.5-68.5-257 68.5-257 186.5-186.5 257-68.5 257 68.5 186.5 186.5 68.5 257-68.5 257-186.5 186.5-257 68.5zM832 384q0-15-10.5-25.5t-25.5-10.5h-568q-15 0-25.5 10.5t-10.5 25.5 10.5 25.5 25.5 10.5h568q15 0 25.5-10.5t10.5-25.5z" />
<glyph unicode="&#xe639;" glyph-name="uniE623" d="M512 896q-139 0-257-68.5t-186.5-186.5-68.5-257 68.5-257 186.5-186.5 257-68.5 257 68.5 186.5 186.5 68.5 257-68.5 257-186.5 186.5-257 68.5zM823 73q-61-61-140-94-81-35-171-35t-171 34q-79 34-140 95t-94 140q-35 81-35 171t34 171q34 79 95 140t140 94q81 35 171 35t171-34q79-34 140-95t94-140q35-81 35-171t-34-171q-34-79-95-140zM796 348h-568q-15 0-25.5 10.5t-10.5 25.5 10.5 25.5 25.5 10.5h568q15 0 25.5-10.5t10.5-25.5-10.5-25.5-25.5-10.5z" />
<glyph unicode="&#xe63a;" glyph-name="uniE624" d="M796 348h-568q-15 0-25.5 10.5t-10.5 25.5 10.5 25.5 25.5 10.5h568q15 0 25.5-10.5t10.5-25.5-10.5-25.5-25.5-10.5z" />
<glyph unicode="&#xe63b;" glyph-name="uniE625" d="M512 896q-139 0-257-68.5t-186.5-186.5-68.5-257 68.5-257 186.5-186.5 257-68.5 257 68.5 186.5 186.5 68.5 257-68.5 257-186.5 186.5-257 68.5zM823 73q-61-61-140-94-81-35-171-35t-171 34q-79 34-140 95t-94 140q-35 81-35 171t34 171q34 79 95 140t140 94q81 35 171 35t171-34q79-34 140-95t94-140q35-81 35-171t-34-171q-34-79-95-140zM732 420h-184v183q0 15-10.5 25.5t-25.5 10.5q-14 0-25-10.5t-11-25.5v-183h-184q-15 0-25.5-11t-10.5-25q0-15 10.5-25.5t25.5-10.5h184v-183q0-15 11-25.5t25-10.5q15 0 25.5 10.5t10.5 25.5v183h184q15 0 25.5 10.5t10.5 25.5q0 14-10.5 25t-25.5 11z" />
<glyph unicode="&#xe63c;" glyph-name="uniE626" d="M512 896q-139 0-257-68.5t-186.5-186.5-68.5-257 68.5-257 186.5-186.5 257-68.5 257 68.5 186.5 186.5 68.5 257-68.5 257-186.5 186.5-257 68.5zM768 384q0-15-10.5-25.5t-25.5-10.5h-184v-183q0-15-10.5-25.5t-25.5-10.5q-14 0-25 10.5t-11 25.5v183h-184q-15 0-25.5 10.5t-10.5 25.5q0 14 10.5 25t25.5 11h184v183q0 15 11 25.5t25 10.5q15 0 25.5-10.5t10.5-25.5v-183h184q15 0 25.5-11t10.5-25z" />
<glyph unicode="&#xe63d;" glyph-name="uniE627" d="M866 420h-318v310q0 15-10.5 25.5t-25.5 10.5-25.5-10.5-10.5-25.5v-310h-312q-14 0-25-10.5t-11-25.5 11-25.5 25-10.5h312v-312q0-14 10.5-25t25.5-11 25.5 11 10.5 25v312h318q15 0 25.5 10.5t10.5 25.5-10.5 25.5-25.5 10.5z" />
<glyph unicode="&#xe63e;" glyph-name="uniE628" d="M512 896q-139 0-257-68.5t-186.5-186.5-68.5-257 68.5-257 186.5-186.5 257-68.5 257 68.5 186.5 186.5 68.5 257-68.5 257-186.5 186.5-257 68.5zM509 712q15 0 25.5-11t10.5-25.5-10.5-25-25.5-10.5-25.5 10.5-10.5 25 10.5 25.5 25.5 11zM666 154q0-15-10.5-25.5t-25.5-10.5h-242q-15 0-25.5 10.5t-10.5 25.5 10.5 25.5 25.5 10.5h85v314h-60q-15 0-25.5 11t-10.5 25q0 15 10.5 25.5t25.5 10.5h96q15 0 25.5-10.5t10.5-25.5v-350h85q15 0 25.5-10.5t10.5-25.5z" />
<glyph unicode="&#xe63f;" glyph-name="uniE629" d="M512 896q-139 0-257-68.5t-186.5-186.5-68.5-257 68.5-257 186.5-186.5 257-68.5 257 68.5 186.5 186.5 68.5 257-68.5 257-186.5 186.5-257 68.5zM823 73q-61-61-140-94-81-35-171-35t-171 34q-79 34-140 95t-94 140q-35 81-35 171t34 171q34 79 95 140t140 94q81 35 171 35t171-34q79-34 140-95t94-140q35-81 35-171t-34-171q-34-79-95-140zM630 190h-85v350q0 15-10.5 25.5t-25.5 10.5h-96q-15 0-25.5-10.5t-10.5-25.5q0-14 10.5-25t25.5-11h60v-314h-85q-15 0-25.5-10.5t-10.5-25.5 10.5-25.5 25.5-10.5h242q15 0 25.5 10.5t10.5 25.5-10.5 25.5-25.5 10.5zM473 675.5q0 14.5 10.5 25.5t25.5 11 25.5-11 10.5-25.5-10.5-25-25.5-10.5-25.5 10.5-10.5 25z" />
<glyph unicode="&#xe640;" glyph-name="yanzhengma" d="M499 361q51-48 53-118t-47-121-119.5-52.5-122 47-53 118.5 47.5 120.5 119.5 52 121.5-46.5v0 0zM296 320q-34-35-33-83.5t36.5-82 84.5-32.5 83 36 32.5 83.5-36.5 82-84 32.5-83-36v0 0zM546 579l122 126q-24 23-25 55t22 55.5 55.5 24 55.5-21.5l70 63q2 2 6 4.5t16 7 25.5 4 33.5-9.5 40-29q25-23 39-46t16-38 0-27-6-17l-4-6-295-307q58-104 42-226.5t-102-212.5q-65-66-153-96l-1 55q67 26 116 77 71 74 86.5 175t-27.5 188l-28 47 299.5 310.5t6.5 12 4.5 19-6 23.5-22.5 27q-14 12-27.5 17t-23 3.5-16.5-5-11-7.5l-3-4-73-75-38 35q-8 8-19 7.5t-18.5-8-7-18.5 8.5-18l38-36-188-195-47 27q-90 38-191 18t-172-94q-61-64-81.5-148t3.5-167 89-144q59-57 138-78l1-54q-101 23-175 94-75 71-103.5 167.5t-4.5 194 95 171.5q87 90 209.5 111t230.5-31v0 0z" />
<glyph unicode="&#xe641;" glyph-name="uniE62A" d="M660 136h-85v404q0 15-10.5 25.5t-25.5 10.5h-96q-15 0-25.5-10.5t-10.5-25.5q0-14 10.5-25t25.5-11h60v-368h-85q-15 0-25.5-10.5t-10.5-25.5 10.5-25.5 25.5-10.5h242q15 0 25.5 10.5t10.5 25.5-10.5 25.5-25.5 10.5zM503 675.5q0 14.5 10.5 25.5t25.5 11 25.5-11 10.5-25.5-10.5-25-25.5-10.5-25.5 10.5-10.5 25z" />
<glyph unicode="&#xe642;" glyph-name="uniE62B" d="M512 193q-17 0-28.5 11.5t-11.5 28.5v495q0 17 11.5 28.5t28.5 11.5 28.5-11.5 11.5-28.5v-495q0-17-11.5-28.5t-28.5-11.5zM467 83q0 19 13 32t32 13 32-13 13-32-13-32-32-13-32 13-13 32z" />
<glyph unicode="&#xe643;" glyph-name="uniE62C" d="M512 896q-139 0-257-68.5t-186.5-186.5-68.5-257 68.5-257 186.5-186.5 257-68.5 257 68.5 186.5 186.5 68.5 257-68.5 257-186.5 186.5-257 68.5zM472 665q0 17 11.5 28.5t28.5 11.5 28.5-11.5 11.5-28.5v-369q0-17-11.5-28.5t-28.5-11.5-28.5 11.5-11.5 28.5v369zM512 102q-19 0-32 13t-13 32 13 32 32 13 32-13 13-32-13-32-32-13z" />
<glyph unicode="&#xe644;" glyph-name="uniE62D" d="M512 824q90 0 171-34 79-34 140-95t94-140q35-81 35-171t-34-171q-34-79-95-140t-140-94q-81-35-171-35t-171 34q-79 34-140 95t-94 140q-35 81-35 171t34 171q34 79 95 140t140 94q81 35 171 35zM512 896q-139 0-257-68.5t-186.5-186.5-68.5-257 68.5-257 186.5-186.5 257-68.5 257 68.5 186.5 186.5 68.5 257-68.5 257-186.5 186.5-257 68.5zM512 256q-17 0-28.5 11.5t-11.5 28.5v369q0 17 11.5 28.5t28.5 11.5 28.5-11.5 11.5-28.5v-369q0-17-11.5-28.5t-28.5-11.5zM467 147q0 19 13 32t32 13 32-13 13-32-13-32-32-13-32 13-13 32z" />
<glyph unicode="&#xe645;" glyph-name="uniE62E" d="M512 896q-139 0-257-68.5t-186.5-186.5-68.5-257 68.5-257 186.5-186.5 257-68.5 257 68.5 186.5 186.5 68.5 257-68.5 257-186.5 186.5-257 68.5zM717 229q11-10 11-25t-10.5-25.5-25.5-10.5-26 10l-154 155-154-155q-11-10-26-10t-25.5 10.5-10.5 25.5 11 25l154 155-154 155q-11 10-11 25t10.5 25.5 25.5 10.5 26-10l154-155 154 155q11 10 26 10t25.5-10.5 10.5-25-11-25.5l-154-155z" />
<glyph unicode="&#xe646;" glyph-name="uniE62F" d="M717.5 589.5q-10.5 10.5-25.5 10.5t-26-10l-154-155-154 155q-11 10-26 10t-25.5-10.5-10.5-25.5 11-25l154-155-154-155q-11-10-11-25t10.5-25.5 25.5-10.5 26 10l154 155 154-155q11-10 26-10t25.5 10.5 10.5 25-11 25.5l-154 155 154 155q11 10 11 25t-10.5 25.5zM512 896q-139 0-257-68.5t-186.5-186.5-68.5-257 68.5-257 186.5-186.5 257-68.5 257 68.5 186.5 186.5 68.5 257-68.5 257-186.5 186.5-257 68.5zM823 73q-61-61-140-94-81-35-171-35t-171 34q-79 34-140 95t-94 140q-35 81-35 171t34 171q34 79 95 140t140 94q81 35 171 35t171-34q79-34 140-95t94-140q35-81 35-171t-34-171q-34-79-95-140z" />
<glyph unicode="&#xe647;" glyph-name="uniE630" d="M512 896q-139 0-257-68.5t-186.5-186.5-68.5-257 68.5-257 186.5-186.5 257-68.5 257 68.5 186.5 186.5 68.5 257-68.5 257-186.5 186.5-257 68.5zM772 540l-360-362q-3-3-8-6-8-5-18-5-21 0-31 18l-109 191q-8 13-4 27t17 21.5 27.5 3.5 21.5-17l86-149 327 328q11 11 26 11t25.5-10.5 10.5-25.5-11-25z" />
<glyph unicode="&#xe648;" glyph-name="uniE631" d="M721 590l-327-328-86 149q-7 13-21.5 17t-27.5-3.5-17-21.5 4-27l109-191q10-18 31-18 10 0 18 5 5 3 8 6l1 1 359 360q11 11 11 26t-10.5 25.5-25.5 10.5-26-11zM512 896q-139 0-257-68.5t-186.5-186.5-68.5-257 68.5-257 186.5-186.5 257-68.5 257 68.5 186.5 186.5 68.5 257-68.5 257-186.5 186.5-257 68.5zM823 73q-61-61-140-94-81-35-171-35t-171 34q-79 34-140 95t-94 140q-35 81-35 171t34 171q34 79 95 140t140 94q81 35 171 35t171-34q79-34 140-95t94-140q35-81 35-171t-34-171q-34-79-95-140z" />
<glyph unicode="&#xe649;" glyph-name="uniE632" d="M328 96q-3 0-5 1-20 2-30 20l-159 278q-8 15-4 31t18.5 24 30.5 3.5 25-18.5l133-233 491 492q11 12 28 12t28.5-11.5 11.5-28.5-12-28l-528-530q-11-12-28-12z" />
<glyph unicode="&#xe64a;" glyph-name="uniE633" d="M568 381l254 255q12 11 12 27.5t-11.5 28-28 11.5-27.5-12l-255-254-255 254q-11 12-27.5 12t-28-11.5-11.5-28 12-27.5l254-255-254-255q-12-11-12-27.5t11.5-28 28-11.5 27.5 12l255 255 255-255q11-12 27.5-12t28 11.5 11.5 28-12 27.5z" />
<glyph unicode="&#xe64b;" glyph-name="uniE634" d="M838 579q-6 26-18 52-25 59-72 105-46 45-107 70-63 26-131 26t-131-26q-60-25-107-70.5t-72-104.5q-11-25-18-53-24-8-45-23-22-16-38-38-35-47-35-106 0-72 51-123 37-37 87-48 4-1 8-1 15 0 25 11 10 10 10 25l-1 227q0 107 77 183 78 76 188.5 76t188.5-76 78-183v-236q0-107-78-183-31-31-71-50 1 11 1 22-1 46-34 79t-79 35h-3q-48 0-82-34.5t-34-82.5q0-47 33.5-81t80.5-35h5q66 1 126 26t107 70.5 73 104.5q22 53 26 111 35 13 62 40 51 51 51 123 0 58-34 104.5t-88 63.5zM82 355q1-3 3-7-2 5-3 7zM92 333q2-4 5-9-4 6-5 9zM160 332l2-2zM173 332q-4 3-7 6-31 31-31 73 0 29 14 53 9 17 24 29v-161zM181 316q-1 0-2 0.5t-1 1.5q1-1 3-2zM188 571q1 5 4 13-2-7-4-13zM204 248l-10 2q9-2 10-2v0zM210 248v0zM237 274v0zM307 756q7 5 10 7-6-4-10-7zM382 799q-30-13-58-31 28 18 58 31 1 0 2.5 0.5t2.5 0.5q-3 0-5-1zM442 761l2 1h5zM742 730q-45 44-104 69-1 0-2.5 0.5t-2.5 0.5q1 0 2.5-0.5t2.5-0.5q59-25 104-69l6-6zM754 718q4-4 9-10-5 6-9 10zM765 706q2-3 8-10-4 4-8 10zM404 52v0zM512 161v0zM544.5 21q-12.5-13-30.5-14h-2q-19 0-32 13.5t-13 31.5q0 19 13 32.5t32 13.5 32-13.5 13-32-12.5-31.5zM565 44v0zM615 19v0q1 1 2.5 1.5t2.5 0.5q-2-1-5-2zM742 38l-6-6q1 1 3.5 3t2.5 3l6 6q-3-4-6-6zM784 266v0 0zM813 140q-3-7-7-14 4 7 7 14 0 1 1 2.5t1 2.5q-1-3-2-5zM813 628q-3 7-7 14 4-7 7-14 1-2 3-7-1 3-3 7zM831 572q0 3-1 7 0-1 0.5-3t0.5-4zM839 510q7-3 12-7-5 4-12 7zM864 332q-11-11-25-18 14 7 25 18 0 1 1 1 0 1 1 1-1 0-1-1-1 0-1-1zM858 338q-5-5-11-10v168q17-13 27-30 15-25 15-55 0-42-31-73zM945 460l-2 6q1-2 2-6zM935 485q1-1 3-6-1 1-1.5 3.5t-1.5 2.5zM943 356q0 2 2 7-1-2-2-7z" />
<glyph unicode="&#xe64c;" glyph-name="uniE635" d="M952 766h-880q-30 0-51-21t-21-51v-621q0-29 21-50.5t51-21.5h880q30 0 51 21.5t21 50.5v621q0 30-21 51t-51 21zM952 73h-880v405h880v-405zM72 574v120h880v-120h-880zM237 192q18 0 31 13t13 31-13 31-31 13-31-13-13-31 13-31 31-13zM404 192q18 0 31 13t13 31-13 31-31 13q-19 0-31.5-13t-12.5-31 12.5-31 31.5-13z" />
<glyph unicode="&#xe64d;" glyph-name="uniE636" d="M888 832h-752q-30 0-51-21t-21-51v-753q0-29 21-50.5t51-21.5h753q29 0 50.5 21.5t21.5 50.5v753q0 30-21.5 51t-51.5 21zM888 7h-752v753h752v-753zM203.5 357.5q10.5-10.5 25.5-10.5t25 11l140 141q11 10 11 25t-10 26l-141 142q-10 10-25 10t-25.5-10.5-10.5-25 10-25.5l115-117-115-115q-10-11-10-26t10.5-25.5zM383 384q0-15 10.5-25.5t24.5-10.5l200-1q14 0 25 10.5t11 25.5-11 25.5-25 10.5l-199 1q-15 0-25.5-10.5t-10.5-25.5z" />
<glyph unicode="&#xe64e;" glyph-name="uniE637" d="M822 832h-618q-29 0-50.5-21t-21.5-51v-753q0-29 21.5-50.5t50.5-21.5h619q29 0 50.5 21.5t21.5 50.5v753q0 30-21.5 51t-51.5 21zM491 760v-209l-9 8-33 34q-8 7-18 7t-17-7l-44-44v211h121zM298 760v-277q0-15 10-25t25-10q37 0 63 25l35 35 35-34q25-25 60-26h1q15 0 25.5 10t10.5 25v277h260v-624h-618v624h93zM204 7v57h618v-57h-618z" />
<glyph unicode="&#xe64f;" glyph-name="uniE638" d="M203 730v-696q0-15-10.5-25.5t-25.5-10.5-25.5 10.5-10.5 25.5v696q0 15 10.5 25.5t25.5 10.5 25.5-10.5 10.5-25.5zM167 70h694q15 0 25.5-10.5t10.5-25.5-10.5-25.5-25.5-10.5h-694q-15 0-25.5 10.5t-10.5 25.5 10.5 25.5 25.5 10.5zM394 537v-371q0-15-10.5-25.5t-25.5-10.5-25.5 10.5-10.5 25.5v371q0 15 10.5 25.5t25.5 10.5 25.5-10.5 10.5-25.5zM777 667v-501q0-15-10.5-25.5t-25.5-10.5-25.5 10.5-10.5 25.5v501q0 15 10.5 25.5t25.5 10.5 25.5-10.5 10.5-25.5zM585 411v-245q0-15-10.5-25.5t-25.5-10.5-25.5 10.5-10.5 25.5v245q0 15 10.5 25.5t25.5 10.5q14 0 25-10.5t11-25.5z" />
<glyph unicode="&#xe650;" glyph-name="uniE639" d="M124 639q0 26 18.5 44.5t44.5 18.5 44.5-18.5 18.5-44.5-18.5-44.5-44.5-18.5-44.5 18.5-18.5 44.5zM856 610h-498q-15 0-25.5 10.5t-10.5 25.5 10.5 25.5 25.5 10.5h498q15 0 25.5-10.5t10.5-25.5-10.5-25.5-25.5-10.5zM124 384q0 26 18.5 44.5t44.5 18.5 44.5-18.5 18.5-44.5-18.5-44.5-44.5-18.5-44.5 18.5-18.5 44.5zM856 355h-498q-15 0-25.5 10.5t-10.5 25.5 10.5 25.5 25.5 10.5h498q15 0 25.5-10.5t10.5-25.5-10.5-25.5-25.5-10.5zM124 129q0 26 18.5 44.5t44.5 18.5 44.5-18.5 18.5-44.5-18.5-44.5-44.5-18.5-44.5 18.5-18.5 44.5zM856 100h-498q-15 0-25.5 10.5t-10.5 25.5 10.5 25.5 25.5 10.5h498q15 0 25.5-10.5t10.5-25.5-10.5-25.5-25.5-10.5z" />
<glyph unicode="&#xe651;" glyph-name="uniE63A" d="M644 633q-61 64-152 64-84 0-143.5-59.5t-59.5-143.5q0-15 10.5-25.5t25.5-10.5 25.5 10.5 10.5 25.5q0 54 38.5 92.5t92.5 38.5h1q59 0 99-42 35-37 32-85-1-18-4-29t-21-37.5-54-62.5q-43-43-66.5-77t-27.5-72q-2-15 7.5-26.5t24.5-12.5h4q14 0 24 9t12 23q3 35 73 105 61 61 79.5 98t20.5 78q5 79-52 139zM443 80q0 18 12.5 30.5t30.5 12.5 30.5-12.5 12.5-30.5-12.5-30.5-30.5-12.5-30.5 12.5-12.5 30.5z" />
<glyph unicode="&#xe652;" glyph-name="uniE63B" d="M512 896q-139 0-257-68.5t-186.5-186.5-68.5-257 68.5-257 186.5-186.5 257-68.5 257 68.5 186.5 186.5 68.5 257-68.5 257-186.5 186.5-257 68.5zM505.5 83q-17.5 0-30.5 13t-13 31 13 30.5 30.5 12.5 30.5-12.5 13-30.5-13-31-30.5-13zM691 505q-2-38-19.5-70.5t-67.5-83.5q-59-58-61-87-2-13-12-22.5t-24-9.5h-4q-15 2-24.5 13.5t-7.5 26.5q3 33 23.5 63t58.5 67q30 30 45.5 52t18 31 2.5 24q2 39-26 69-33 34-81 34-45 0-76.5-31.5t-31.5-75.5q0-15-10.5-25.5t-25.5-10.5-25.5 10.5-10.5 25.5q0 74 52.5 126.5t126.5 52.5q80 1 134-56 50-53 46-123z" />
<glyph unicode="&#xe653;" glyph-name="uniE63C" d="M512 896q-139 0-257-68.5t-186.5-186.5-68.5-257 68.5-257 186.5-186.5 257-68.5 257 68.5 186.5 186.5 68.5 257-68.5 257-186.5 186.5-257 68.5zM823 73q-61-61-140-94-81-35-171-35t-171 34q-79 34-140 95t-94 140q-35 81-35 171t34 171q34 79 95 140t140 94q81 35 171 35t171-34q79-34 140-95t94-140q35-81 35-171t-34-171q-34-79-95-140zM507 232h-4q-15 2-24.5 13.5t-7.5 26.5q3 33 23.5 63t58.5 67q30 30 45.5 52t18 31.5 2.5 23.5q2 39-26 69-33 35-81 35-45 0-76.5-32t-31.5-76q0-15-10.5-25.5t-25.5-10.5-25.5 10.5-10.5 25.5q0 74 52.5 126.5t126.5 53.5q80 0 134-57 50-53 46-123-2-37-19.5-70t-67.5-84q-59-58-61-86-2-14-12-23.5t-24-9.5zM462 127q0 18 13 30.5t30.5 12.5 30.5-12.5 13-30.5-13-30.5-30.5-12.5-30.5 12.5-13 30.5z" />
<glyph unicode="&#xe654;" glyph-name="uniE63D" d="M326 704q-15 0-25.5-11t-10.5-25v-568q0-14 10.5-25t25.5-11 25 11 9 25v568q1 14-9 25t-25 11zM698 704q-14 0-25-11t-11-25v-568q0-14 11-25t25-11q15 0 25.5 11t10.5 25v568q0 14-10.5 25t-25.5 11z" />
<glyph unicode="&#xe655;" glyph-name="uniE63E" d="M512 896q-139 0-257-68.5t-186.5-186.5-68.5-257 68.5-257 186.5-186.5 257-68.5 257 68.5 186.5 186.5 68.5 257-68.5 257-186.5 186.5-257 68.5zM393 228q0-15-10.5-25.5t-25.5-10.5-25.5 10.5-10.5 25.5v312q0 15 10.5 25.5t25.5 10.5 25.5-10.5 10.5-25.5v-312zM703 228q0-15-10.5-25.5t-25.5-10.5-25.5 10.5-10.5 25.5v312q0 15 10.5 25.5t25.5 10.5 25.5-10.5 10.5-25.5v-312z" />
<glyph unicode="&#xe656;" glyph-name="uniE63F" d="M512 896q-139 0-257-68.5t-186.5-186.5-68.5-257 68.5-257 186.5-186.5 257-68.5 257 68.5 186.5 186.5 68.5 257-68.5 257-186.5 186.5-257 68.5zM823 73q-61-61-140-94-81-35-171-35t-171 34q-79 34-140 95t-94 140q-35 81-35 171t34 171q34 79 95 140t140 94q81 35 171 35t171-34q79-34 140-95t94-140q35-81 35-171t-34-171q-34-79-95-140zM357 576q-15 0-25.5-10.5t-10.5-25.5v-312q0-15 10.5-25.5t25.5-10.5 25.5 10.5 10.5 25.5v312q0 15-10.5 25.5t-25.5 10.5zM667 576q-15 0-25.5-10.5t-10.5-25.5v-312q0-15 10.5-25.5t25.5-10.5 25.5 10.5 10.5 25.5v312q0 15-10.5 25.5t-25.5 10.5z" />
<glyph unicode="&#xe657;" glyph-name="uniE640" d="M512 896q-139 0-257-68.5t-186.5-186.5-68.5-257 68.5-257 186.5-186.5 257-68.5 257 68.5 186.5 186.5 68.5 257-68.5 257-186.5 186.5-257 68.5zM769 356q0-15-10.5-25.5t-25.5-10.5h-185q-30 0-51 21t-21 51v240q0 15 10.5 25.5t25.5 10.5 25.5-10.5 10.5-25.5v-240h185q15 0 25.5-10.5t10.5-25.5z" />
<glyph unicode="&#xe658;" glyph-name="uniE641" d="M512 896q-139 0-257-68.5t-186.5-186.5-68.5-257 68.5-257 186.5-186.5 257-68.5 257 68.5 186.5 186.5 68.5 257-68.5 257-186.5 186.5-257 68.5zM823 73q-61-61-140-94-81-35-171-35t-171 34q-79 34-140 95t-94 140q-35 81-35 171t34 171q34 79 95 140t140 94q81 35 171 35t171-34q79-34 140-95t94-140q35-81 35-171t-34-171q-34-79-95-140zM733 392h-185v240q0 15-10.5 25.5t-25.5 10.5-25.5-10.5-10.5-25.5v-240q0-30 21-51t51-21h185q15 0 25.5 10.5t10.5 25.5-10.5 25.5-25.5 10.5z" />
<glyph unicode="&#xe659;" glyph-name="uniE642" d="M194 481q-1 0-1 0.5t-1 0.5v0h-4l-1 1h-3l-1 1h-1l-1 1h-2v1h-1l-1 1h-1v1h-1l-1 1v1h-2q-1 2-2 3-1 0-1 1v0l-1 1v1h-1v1l-1 1v1h-1v1h-1v3h-1v1q0 1-0.5 1t-0.5 1v3l-1 1v14l1 1v3q1 1 1 2v0 1l1 1v2h1q0 1 1 2v0 0q0 1 0.5 1t0.5 1h1v1q0 1 1 1v1h1v1h1l178 178q10 11 25 11t25-11q11-11 11-25.5t-11-25.5l-116-116h545q15 0 25.5-10.5t10.5-25.5-10.5-25.5-25.5-10.5h-634zM830 287q1 0 1-0.5t1-0.5v0h4l1-1h3v-1h2l1-1h2v-1h1l1-1h1v-1h1l1-1v-1h2q1-2 2-3 1 0 1-1v0l1-1v-1h1v-1h1v-1q0-1 0.5-1t0.5-1h1v-3h1v-2l1-1v-3l1-1v-14l-1-1v-3l-1-1v-2l-1-1v-2h-1q0-1-1-2v0 0q0-1-0.5-1t-0.5-1l-1-1v-1h-1v-1h-1v-1q-1 0-1-1l-177-177q-11-11-26-11t-25 11q-11 10-11 25t11 26l116 116h-545q-14 0-25 10.5t-11 25.5 11 25.5 25 10.5h634z" />
<glyph unicode="&#xe65a;" glyph-name="uniE643" d="M164 320h-2v1h-4v1h-4l-1 1h-1v1h-3v1h-1v1h-2v1h-1l-2 2h-1q-1 2-2 3h-1v1l-1 1v1h-1v1h-1v2h-1v1l-1 1v2h-1v1q0 1-1 1v4l-1 1v14l1 1v4h1v2h1v2l1 1v1h1v2h1v1l1 1v1h1v1h1q1 1 1 2l178 177q10 11 25 11t25-11q11-11 11-25.5t-11-25.5l-116-116h545q15 0 25.5-10.5t10.5-25.5-10.5-25.5-25.5-10.5h-634z" />
<glyph unicode="&#xe65b;" glyph-name="uniE644" d="M830 320h2v1h4v1h4v1h2v1h3v1h1v1h2v1h1l1 1v1h2q1 2 2 3h1v1l1 1v1h1v1h1v2h1v1l1 1v2h1v2h1v4l1 1v14l-1 1v3l-1 1v2h-1v2l-1 1v1h-1v2h-1v1l-1 1q0 1-1 1l-1 1q-1 1-1 2l-177 177q-11 11-26 11t-25-11q-11-10-11-25t11-26l116-116h-545q-14 0-25-10.5t-11-25.5 11-25.5 25-10.5h634z" />
<glyph unicode="&#xe65c;" glyph-name="uniE645" d="M888 760v0-753h-752v753h752zM888 832h-752q-30 0-51-21t-21-51v-753q0-29 21-50.5t51-21.5h753q29 0 50.5 21.5t21.5 50.5v753q0 30-21.5 51t-51.5 21zM732 420h-184v183q0 15-10.5 25.5t-25.5 10.5q-14 0-25-10.5t-11-25.5v-183h-184q-15 0-25.5-11t-10.5-25q0-15 10.5-25.5t25.5-10.5h184v-183q0-15 11-25.5t25-10.5q15 0 25.5 10.5t10.5 25.5v183h184q15 0 25.5 10.5t10.5 25.5q0 14-10.5 25t-25.5 11z" />
<glyph unicode="&#xe65d;" glyph-name="uniE646" d="M512 896q-139 0-257-68.5t-186.5-186.5-68.5-257 68.5-257 186.5-186.5 257-68.5 257 68.5 186.5 186.5 68.5 257-68.5 257-186.5 186.5-257 68.5zM254 454q-25 0-42.5 17.5t-17.5 42 17.5 42.5 42.5 18 42.5-18 17.5-42.5-17.5-42-42.5-17.5zM640 130q-15 0-25.5 11t-10.5 25q0 39-27 66t-65 27-65-27-27-66q0-14-10.5-25t-25.5-11-25.5 11-10.5 25q0 68 48 116.5t116 48.5 116-48.5 48-116.5q0-14-10.5-25t-25.5-11zM769.5 454q-24.5 0-42 17.5t-17.5 42 17.5 42.5 42 18 42.5-18 18-42.5-18-42-42.5-17.5z" />
<glyph unicode="&#xe65e;" glyph-name="uniE647" d="M193 408q0 26 19 45t45.5 19 45-19 18.5-45-18.5-45-45-19-45.5 19-19 45zM449 408q0 26 19 45t45 19 45-19 19-45-19-45-45-19-45 19-19 45zM705 408q0 26 18.5 45t45 19 45.5-19 19-45-19-45-45.5-19-45 19-18.5 45z" />
<glyph unicode="&#xe65f;" glyph-name="uniE648" d="M880 649l-162 166q-17 17-40 17h-317q-26 0-46-18-17-15-23-37h-60q-43 0-73.5-31t-30.5-76v-627q0-44 30.5-75.5t73.5-31.5h508q43 0 73.5 31.5t30.5 75.5v63q23 6 37.5 25.5t14.5 44.5v433q0 24-16 40zM712 810v0l-3 3zM810 632l-66 68zM684 749l108-110h-108v110zM677 768v0zM205-52q4-1 5-2-2 1-5 2zM232-56q-6 0-12 1 5-1 12-1zM775 43q0-15-10-25.5t-25-10.5h-508q-14 0-24.5 10.5t-10.5 25.5v627q0 15 10.5 25.5t24.5 10.5h58v-531q0-30 21-51t50-21h414v-60zM827 176q0-2-2-2h-464q-2 0-2 2v583q0 2 2 2h251v-157q0-15 10-25t24-10h181v-393zM837 112q4 1 9 2-5-1-9-2zM593 281h-107q-15 0-25-10.5t-10-25 10-25 25-10.5h107q14 0 24.5 10.5t10.5 25-10.5 25-24.5 10.5zM700 392h-214q-14 0-24.5-10.5t-10.5-25 10.5-25 24.5-10.5h214q14 0 24 10.5t10 25-10 25-24 10.5zM459 356v0q0-4 1-8-1 4-1 8zM700 384v0zM712 332l4 2zM451 467.5q0-14.5 10.5-25t24.5-10.5h214q14 0 24 10.5t10 25-10 25-24 10.5h-214q-14 0-24.5-10.5t-10.5-25zM459 466v0z" />
<glyph unicode="&#xe660;" glyph-name="uniE658" d="M97 695h828q15 0 25.5 10.5t10.5 25.5-10.5 25.5-25.5 10.5h-828q-15 0-25.5-10.5t-10.5-25.5 10.5-25.5 25.5-10.5zM923 450h-565q-15 0-25.5-10.5t-10.5-25.5 10.5-25.5 25.5-10.5h565q15 0 25.5 10.5t10.5 25.5-10.5 25.5-25.5 10.5zM925 72h-825q-15 0-25.5-10.5t-10.5-25.5 10.5-25.5 25.5-10.5h825q15 0 25.5 10.5t10.5 25.5-10.5 25.5-25.5 10.5zM195 281q11-10 25-10 15 0 26 11 10 10 10 25t-10 25l-96 94 94 88q11 11 11.5 26t-10 25.5-25.5 11-25-9.5l-121-114q-12-11-12-26t11-26z" />
<glyph unicode="&#xe661;" glyph-name="uniE659" d="M886 768h-753q-30 0-51-21t-21-51v-626q0-30 21-51t51-21h753q30 0 51 21t21 51v626q0 30-21 51t-51 21zM809 696l-268-224-2-1-1-2q-11-11-26-11h-1q-15 0-25 11l-2 1-274 226h599zM886 70h-753v597l303-250q31-31 76-31t76 32l298 249v-597z" />
<glyph unicode="&#xe662;" glyph-name="uniE65A" d="M778 123q-52-55-121-85-71-31-150-31-76 0-144.5 28.5t-122 82-82 122.5-28.5 144 28.5 144 82 122.5 122 82 144 28.5 144.5-28.5 122-82.5q11-10 26-10t25.5 10.5 10.5 25.5-11 25q-62 62-142 96-84 36-175 36t-175-36q-80-34-142-96t-96-142q-36-84-36-175t36-175q34-80 96-142t142-96q84-36 175-36 94 0 179 37 82 36 144 101 11 11 10.5 25.5t-11 25-25.5 10.5-26-11zM962 383q0 12-8 21l-108 139q-10 12-24.5 13.5t-26.5-7.5-13.5-24 7.5-27l63-80h-408q-15 0-25.5-10.5t-10.5-25.5v0q0-15 10.5-25.5t25.5-10.5h408l-63-81q-9-12-7.5-26.5t13.5-23.5q10-8 22-8 18 0 29 14l108 139q8 9 8 21v2z" />
<glyph unicode="&#xe663;" glyph-name="uniE65B" d="M542 230l-179-179q-39-38-93-38t-92 38q-39 39-39 93t39 93l178 179q11 10 11 25t-10.5 25.5-25.5 10.5-25-11l-179-178q-60-60-60-144t59.5-143.5 143.5-59.5 144 59l179 179q10 11 10 26t-10.5 25.5-25.5 10.5-25-11zM899.5 773.5q-59.5 59.5-143.5 59.5t-144-60l-179-179q-10-10-10-25t10.5-25.5 25.5-10.5 25 10l179 179q39 39 93 39t92.5-38.5 38.5-93-39-92.5l-178-179q-11-10-11-25t10.5-25.5 25.5-10.5 26 10l179 179q59 60 59 144t-59.5 143.5zM486 308l102 102q11 10 11 25t-10.5 25.5-25.5 10.5-25-11l-102-102q-11-10-11-25t10.5-25.5 25.5-10.5 25 11z" />
<glyph unicode="&#xe664;" glyph-name="uniE65C" d="M923-64h-824q-15 0-25.5 10.5t-10.5 25.5v825q0 15 10.5 25.5t25.5 10.5 25.5-10.5 10.5-25.5v-789h788q15 0 25.5-10.5t10.5-25.5-10.5-25.5-25.5-10.5zM192 96l117 209q4 7 12 9.5t16-0.5l111-52 118 171q11 15 27 7l110-56 160 251q7 11 19.5 7.5t12.5-16.5v-520q0-16-11.5-27.5t-27.5-11.5h-646q-11 0-17 9.5t-1 19.5z" />
<glyph unicode="&#xe665;" glyph-name="uniE65D" d="M923-64h-824q-15 0-25.5 10.5t-10.5 25.5v825q0 15 10.5 25.5t25.5 10.5 25.5-10.5 10.5-25.5v-789h788q15 0 25.5-10.5t10.5-25.5-10.5-25.5-25.5-10.5zM385 153q-19 0-30 16l-157 250q-8 13-5 27.5t15.5 22.5 27 5 22.5-15l112-182 46 177q4 16 19 23l182 88q13 6 26 2.5t21-15.5l91-148 134 403q5 14 18 21t27 2 21-18 2-27l-158-477q-7-22-30-24.5t-35 16.5l-115 186-137-66-62-240q-6-23-29-26-3-1-6-1z" />
<glyph unicode="&#xe666;" glyph-name="uniE65E" d="M932 454l-372 358q-20 18-48 18t-48-18l-372-358q-11-10-12-25t9-26 25-12 26 9l372 358 372-358q11-10 26-9t25 12 9 26-12 25zM833 321q-15 0-25.5-10.5t-10.5-25.5v-277h-143v240q0 30-21 51t-51 21h-140q-30 0-51-21t-21-51v-240h-143v277q0 15-10.5 25.5t-25.5 10.5-25.5-10.5-10.5-25.5v-277q0-30 21-51t51-21h570q30 0 51 21t21 51v277q0 15-10.5 25.5t-25.5 10.5zM442 248h140v-240h-140v240z" />
<glyph unicode="&#xe667;" glyph-name="uniE65F" d="M887 760v0-559l-752-1v560h752zM887 832h-752q-30 0-51-21t-21-51v-559q0-30 21-51t51-21h752q30 0 51 21t21 51v559q0 30-21 51t-51 21zM923-16h-824q-15 0-25.5 10.5t-10.5 25.5 10.5 25.5 25.5 10.5h824q15 0 25.5-10.5t10.5-25.5-10.5-25.5-25.5-10.5z" />
<glyph unicode="&#xe668;" glyph-name="uniE660" d="M956 497.5q-8 23.5-26.5 39t-42.5 19.5l-205 31-92 195q-11 24-33 37-21 13-45 13t-45-13q-22-13-33-37l-92-195-205-31q-24-4-42.5-19.5t-26.5-39-2.5-47 22.5-41.5l151-154-36-218q-6-40 20-70.5t66-30.5q22 0 42 11l181 100 181-100q20-11 42-11 40 0 66 30.5t20 70.5l-36 218 151 154q17 18 22.5 41.5t-2.5 47z" />
<glyph unicode="&#xe669;" glyph-name="uniE661" d="M512 760q9 0 13-9l105-222q3-7 11-9l235-35q9-2 12-10.5t-4-14.5l-171-176q-5-5-4-12l41-247q1-7-3.5-12t-11.5-5q-4 0-7 2l-209 115q-3 2-7 2t-7-2l-209-115q-3-2-7-2-7 0-11.5 5t-3.5 12l41 247q1 7-4 12l-171 176q-7 6-4 14.5t12 9.5l235 36q8 1 11 9l105 222q4 9 13 9zM512 832q-24 0-45-13-22-13-33-37l-92-195-205-31q-24-4-42.5-19.5t-26.5-39-2.5-47 22.5-41.5l151-154-36-218q-6-40 20-70.5t66-30.5q22 0 42 11l181 100 181-100q20-11 42-11 40 0 66 30.5t20 70.5l-36 218 151 154q17 18 22.5 41.5t-2.5 47-26.5 39-42.5 19.5l-205 31-92 195q-11 24-33 37-21 13-45 13z" />
<glyph unicode="&#xe66a;" glyph-name="uniE662" d="M892 648h-377q-2 1-3 2l-16 56q-5 26-27 43.5t-48 17.5h-287q-28 0-48.5-20.5t-20.5-50.5v-625q0-29 20.5-49.5t48.5-20.5h758q29 0 49 20 21 21 21 51v506q0 29-20.5 49.5t-49.5 20.5zM132 696q0 4 2 4h287q3 0 6-2.5t4-5.5l15-52h-314v56zM894 71q0-1-1-2 0-1-1-1h-758q-2 0-2 4v497h762v-498z" />
<glyph unicode="&#xe66b;" glyph-name="uniE663" d="M890.5 719.5q-9.5 23.5-30.5 37t-46 13.5h-602q-25 0-46-13.5t-30.5-37-4.5-48 22-42.5l273-263v-262q0-15 11-25l125-129q10-11 26-11 6 0 13 2 23 9 23 34v393l248 261q18 18 23 42.5t-4.5 48zM821 680l-259-272q-10-10-10-25v-322l-54 58v262q0 15-10 25l-284 274q-5 5-2 11.5t10 6.5h602q7 0 9.5-6.5t-2.5-11.5z" />
<glyph unicode="&#xe66c;" glyph-name="uniE664" d="M822 636l-170 170q-26 26-63 26h-387q-30 0-51-21t-21-51v-751q0-30 21-51t51-21h620q30 0 51 21t21 51v518q0 37-26 63zM611 745l196-196h-196v196zM822 9h-620v751h337v-247q0-15 10.5-25.5t25.5-10.5h247v-468z" />
<glyph unicode="&#xe66d;" glyph-name="uniE665" d="M667.5 63q13.5 0 23 9.5t9.5 23.5v382q0 14-9.5 23.5t-23 9.5-22.5-9.5-9-23.5v-382q0-14 9-23.5t22.5-9.5zM632-26q0 15 10.5 25.5t25.5 10.5 25.5-10.5 10.5-25.5-10.5-26-25.5-11-25.5 11-10.5 26zM542 644h-317q-13 0-22.5-10.5t-9.5-25.5 9.5-25.5 22.5-10.5h317q14 0 23.5 10.5t9.5 25.5-9.5 25.5-23.5 10.5zM225 380h127q14 0 23.5 10.5t9.5 25.5-9.5 25.5-23.5 10.5h-127q-13 0-22.5-10.5t-9.5-25.5 9.5-25.5 22.5-10.5zM225 188h191q14 0 23.5 10.5t9.5 25.5-9.5 25.5-23.5 10.5h-191q-13 0-22.5-10.5t-9.5-25.5 9.5-25.5 22.5-10.5zM857 833h-690q-42 0-72-30t-30-72v-690q0-42 30-72t72-30h254q15 0 25.5 10.5t10.5 25.5-10.5 25.5-25.5 10.5h-254q-12 0-21 9t-9 21v690q0 12 9 21t21 9h690q12 0 21-9t9-21v-690q0-12-9-21t-21-9h-69q-15 0-25.5-10.5t-10.5-25.5 10.5-25.5 25.5-10.5h69q42 0 72 30t30 72v690q0 42-30 72t-72 30z" />
<glyph unicode="&#xe66e;" glyph-name="uniE666" d="M512 896q-139 0-257-68.5t-186.5-186.5-68.5-257 68.5-257 186.5-186.5 257-68.5 257 68.5 186.5 186.5 68.5 257-68.5 257-186.5 186.5-257 68.5zM254 454q-25 0-42.5 17.5t-17.5 42 17.5 42.5 42.5 18 42.5-18 17.5-42.5-17.5-42-42.5-17.5zM643 118h-264q-15 0-25.5 10.5t-10.5 25.5 10.5 25.5 25.5 10.5h264q15 0 25.5-10.5t10.5-25.5-10.5-25.5-25.5-10.5zM769.5 454q-24.5 0-42 17.5t-17.5 42 17.5 42.5 42 18 42.5-18 18-42.5-18-42-42.5-17.5z" />
<glyph unicode="&#xe66f;" glyph-name="uniE667" d="M512 896q-139 0-257-68.5t-186.5-186.5-68.5-257 68.5-257 186.5-186.5 257-68.5 257 68.5 186.5 186.5 68.5 257-68.5 257-186.5 186.5-257 68.5zM823 73q-61-61-140-94-81-35-171-35t-171 34q-79 34-140 95t-94 140q-35 81-35 171t34 171q34 79 95 140t140 94q81 35 171 35t171-34q79-34 140-95t94-140q35-81 35-171t-34-171q-34-79-95-140zM194 513.5q0 24.5 17.5 42.5t42.5 18 42.5-18 17.5-42.5-17.5-42-42.5-17.5-42.5 17.5-17.5 42zM710 513.5q0 24.5 17.5 42.5t42 18 42.5-18 18-42.5-18-42-42.5-17.5-42 17.5-17.5 42zM643 190h-264q-15 0-25.5-10.5t-10.5-25.5 10.5-25.5 25.5-10.5h264q15 0 25.5 10.5t10.5 25.5-10.5 25.5-25.5 10.5z" />
<glyph unicode="&#xe670;" glyph-name="uniE668" d="M923 194h-596l30 61 497 1q13 0 22.5 8t11.5 20l69 386q3 16-7.5 28t-26.5 12l-632 3-5 25q-3 12-13 20t-22 8h-155q-14 0-24.5-10.5t-10.5-25 10.5-25 24.5-10.5h126l24-112 58-281-75-122q-13-18-3-37t32-19h63q-21-28-21-62 0-43 30-73t72.5-30 72.5 30 30 73q0 34-20 62h161q-21-28-21-62 0-43 30-73t72.5-30 72.5 30 30 73q0 34-20 62h113q15 0 25 10t10 24.5-10 25-25 10.5zM306 643l576-2-57-316-452-1zM403 30q-13 0-22.5 9.5t-9.5 22.5 9.5 22.5 22.5 9.5 22-9.5 9-22.5-9-22.5-22-9.5zM728 30q-13 0-22.5 9.5t-9.5 22.5 9.5 22.5 22.5 9.5 22-9.5 9-22.5-9-22.5-22-9.5z" />
<glyph unicode="&#xe671;" glyph-name="uniE669" d="M650 768h-450q-30 0-51-21t-21-51v-623q0-30 21-51t51-21h623q30 0 51 21t21 51v450zM329 696h217v-206q0-15-10.5-25.5t-25.5-10.5h-145q-15 0-25.5 10.5t-10.5 25.5v206zM823 73h-623v623h57v-206q0-45 31.5-76.5t76.5-31.5h145q44 0 76 32t32 76v206h2l203-203v-420zM469 526q15 0 25.5 10.5t10.5 25.5v43q0 15-10.5 25.5t-25.5 10.5-25.5-10.5-10.5-25.5v-43q0-15 10.5-25.5t25.5-10.5z" />
<glyph unicode="&#xe672;" glyph-name="uniE66A" d="M819 103q-25 60-71 106t-106 71q-20 9-42 15 61 20 107 66 81 81 81 195t-81 194.5-195 80.5-194.5-80.5-80.5-194.5 80-195q46-46 107-66-23-6-42-15-60-25-106-71t-71-106q-26-62-26-130 0-15 10.5-25.5t25.5-10.5 25.5 10.5 10.5 25.5q0 108 76.5 185t185 77 185-76.5 76.5-185.5q0-15 10.5-25.5t25.5-10.5 25.5 10.5 10.5 25.5q-1 68-27 130zM309 556q0 84 59.5 143.5t143.5 59.5 143.5-59.5 59.5-143.5-59.5-144-143.5-60-143.5 60-59.5 144z" />
<glyph unicode="&#xe673;" glyph-name="uniE66B" d="M1010 573q-11 10-26 10-9 0-18-5l-126-67v188q0 29-20.5 50t-50.5 21h-698q-29 0-50-21t-21-50v-630q0-29 21-50t50-21h698q30 0 50.5 21t20.5 50v203l123-79q10-6 22-6 13 0 25 9 14 12 14 31v316q0 18-14 30zM945 477v-178l-103 66v57zM761 667v-566q0-10-6.5-17t-16.5-7h-636q-9 0-16 7t-7 17v566q0 10 7 17t16 7h636q10 0 16.5-7t6.5-17z" />
<glyph unicode="&#xe674;" glyph-name="uniE66C" d="M920 74h-816q-15 0-25.5-10.5t-10.5-25.5 10.5-25.5 25.5-10.5h816q15 0 25.5 10.5t10.5 25.5-10.5 25.5-25.5 10.5zM365.5 576q14.5 0 25.5 10l85 85v-449q0-15 10.5-25.5t25.5-10.5 25.5 10.5 10.5 25.5v449l85-85q10-10 25-10t25.5 10.5 10.5 25.5-10 25l-146 146q-11 11-26 11t-25-11l-147-146q-10-11-10-25.5t10.5-25 25-10.5z" />
<glyph unicode="&#xe675;" glyph-name="uniE66D" d="M839 409q-30 30-67 47 44 23 72 64 35 51 35 113 0 84-59 142.5t-142 58.5q-65 0-117-36-45-33-67-83-60 64-147 64-84 0-143-59t-59-142q0-62 35-113 28-41 73-65-38-17-68-47-67-67-67-161v-165q0-37 26.5-64t64.5-27h276q27 0 49.5 15.5t33.5 40.5h248q37 0 64 26.5t27 63.5v165q-1 95-68 162zM586 725q38 38 92 38t92-38 38-91.5-38-92-92-38.5-92 38-38 92 38 92zM216 578q0 54 38 92t92 38 92-38 38-92-38-92-92-38-92 38-38 92zM504 27q0-8-6-13.5t-14-5.5h-276q-8 0-13.5 5.5t-5.5 13.5v165q0 65 46 111t111 46 112-46l1-1v-1q45-46 45-109v-165zM486 372q-21 17-46 28 62 33 90 96 24-25 54-40-38-17-68-47-17-17-30-37zM835 82q0-8-5.5-13.5t-13.5-5.5h-241v129q0 69-38 126 12 23 29 40 47 47 112 47t111-46.5 46-111.5v-165z" />
<glyph unicode="&#xe676;" glyph-name="uniE66E" d="M886 835h-753q-30 0-51-21t-21-51v-753q0-30 21-51t51-21h753q30 0 51 21t21 51v753q0 30-21 51t-51 21zM133 763h753v-504h-753v504zM886 10h-753v177h753v-177zM476 94q0 15 10.5 25.5t25.5 10.5 25.5-10.5 10.5-25.5-10.5-25.5-25.5-10.5-25.5 10.5-10.5 25.5z" />
<glyph unicode="&#xe677;" glyph-name="uniE66F" d="M575 608q0 15-9.5 25.5t-23.5 10.5h-317q-13 0-22.5-10.5t-9.5-25.5 9.5-25.5 22.5-10.5h317q14 0 23.5 10.5t9.5 25.5zM225 380h127q14 0 23.5 10.5t9.5 25.5-9.5 25.5-23.5 10.5h-127q-13 0-22.5-10.5t-9.5-25.5 9.5-25.5 22.5-10.5zM225 188h191q14 0 23.5 10.5t9.5 25.5-9.5 25.5-23.5 10.5h-191q-13 0-22.5-10.5t-9.5-25.5 9.5-25.5 22.5-10.5zM857 833h-690q-42 0-72-30t-30-72v-690q0-42 30-72t72-30h254q15 0 25.5 10.5t10.5 24.5q1 15-10 26t-26 11h-254q-12 0-21 9t-9 21v690q0 12 9 21t21 9h690q12 0 21-9t9-21v-373q0-15 10.5-25.5t25.5-10.5 25.5 10.5 10.5 25.5v373q0 42-30 72t-72 30zM894 94q-25 26-57 42 33 38 33 88 0 57-40 97t-96.5 40-96.5-40-40-97q0-52 36-91-28-15-51-37-49-48-62-116-3-16 7.5-29t27.5-13q13 0 23 8t13 21q10 52 51 86t95 34 95.5-34 51.5-86q3-13 12.5-21t22.5-8q17 0 28 13t8 29q-13 66-61 114zM733.5 160q-26.5 0-45.5 19t-19 45.5 19 45.5 45.5 19 45.5-19 19-45.5-19-45.5-45.5-19z" />
<glyph unicode="&#xe678;" glyph-name="uniE670" d="M952 0l-205 205q86 106 86 243 0 159-112.5 271.5t-272 112.5-272-112.5-112.5-272 112.5-272 271.5-112.5q137 0 242 85l205-204q12-12 28.5-12t28 11.5 11.5 28-11 28.5zM570 160q-58-25-122-25-63 0-121 25-56 23-100 66-43 44-67 100-24 58-24 122 0 63 24 121 24 56 67 99 44 44 100 68 58 24 121 24 64 0 122-24 56-24 99.5-67.5t66.5-99.5q25-58 25-122 0-63-25-121-23-56-66-100-44-43-100-66z" />
<glyph unicode="&#xe679;" glyph-name="uniE671" d="M814 233q-38 0-70.5-18t-53.5-49l-236 168q6 24 6 48 0 39-15 75l257 130q45-51 112-51 61 0 104.5 43.5t43.5 104.5-43.5 104.5-104.5 43.5-104.5-43.5-43.5-104.5q0-17 4-33l-264-133q-59 62-144 62-82 0-140-58t-58-140 58-140 140-58q49 0 91.5 22.5t69.5 60.5l243-172v-10q0-61 43.5-104.5t104.5-43.5 104.5 43.5 43.5 104.5-43.5 104.5-104.5 43.5zM814 760q31 0 53.5-22.5t22.5-54-22.5-53.5-53.5-22-53.5 22-22.5 53.5 22.5 54 53.5 22.5zM262 256q-52 0-89 37t-37 89 37 89 89 37 89-37 37-89-37-89-89-37zM814 9q-31 0-53.5 22t-22.5 53.5 22.5 54 53.5 22.5 53.5-22.5 22.5-54-22.5-53.5-53.5-22z" />
<glyph unicode="&#xe67a;" glyph-name="uniE672" d="M962 456l-4 24-73 25q-10 30-24 58l34 69-14 19q-43 60-102 103l-20 14-69-35q-28 14-58 24l-24 73-24 4q-39 6-72 6t-72-6l-24-4-25-73q-30-10-57-24l-69 35-20-15q-59-43-102-102l-14-20 34-69q-14-28-24-57l-73-25-4-24q-6-39-6-72t6-72l4-24 73-25q10-30 24-57l-34-69 14-20q22-30 47-55 23-23 55-47l20-14 69 34q28-14 57-24l25-73 24-4q39-6 72-6t72 6l24 4 25 73q29 10 57 24l69-35 20 15q32 23 55 47 24 23 47 55l14 20-34 69q14 28 24 58l73 24 4 24q6 39 6 72t-6 72zM896 385v-1q0-19-2-42l-36-11-31-11-10-32q-8-27-21-52l-16-29 32-63q-14-17-28-31v-1q-14-14-32-27l-62 31-29-15q-26-13-54-22l-31-10-10-31-12-35q-21-3-42-3-19 0-42 3l-11 35-11 31-31 10q-28 9-53 22l-29 15-30-15-33-16q-17 13-31 28-15 14-28 31l31 62-15 29q-14 27-22 53l-10 32-66 22q-3 21-3 42 0 19 3 42l66 22 10 31q8 27 22 53l15 30-15 29-16 33q26 33 59 59l62-31 30 15q25 14 53 22l31 10 10 31 12 36q23 2 42 2 20 0 42-2l22-67 31-9q28-9 54-22l29-16 62 32q33-27 60-60l-32-62 15-29q14-26 23-53l9-32 31-10 36-12q3-22 2-41zM512 558q-72 0-123-51t-51-123 51-123 123-51 123 51 51 123-51 123-123 51zM584 312q-30-30-72-30t-72 30-30 72 30 72 72.5 30 72-30 29.5-72-30-72z" />
<glyph unicode="&#xe67b;" glyph-name="uniE674" d="M886 768h-752q-30 0-51-21.5t-21-50.5v-626q0-29 21-50.5t51-21.5h752q30 0 51 21.5t21 50.5v626q0 30-21 51t-51 21zM886 70h-752v213l186 190 217-270q9-10 22.5-11.5t24.5 5.5l161 109 141-67v-169zM886 330l-118 48q-21 16-42 2l-156-105-222 275q-10 12-26 12t-27-11l-161-165v310h752v-366zM696 622q-42 0-71.5-29.5t-29.5-71.5 29.5-71.5 71.5-29.5 71.5 29.5 29.5 71.5-29.5 71.5-71.5 29.5zM696 492q-12 0-20.5 8.5t-8.5 20.5 8.5 20.5 20.5 8.5 20.5-8.5 8.5-20.5-8.5-20.5-20.5-8.5z" />
<glyph unicode="&#xe67c;" glyph-name="uniE675" d="M914 733q-66 101-128 101-36 0-64-28-48-48-77-93-44-68-29-115 4-15 17.5-31t44.5-47q32-32 38-41 10-14-19-60-27-43-99-118-61-58-99-85-48-35-71-35-5 0-8 2-9 7-41 38-32 32-47.5 45t-30.5 17q-12 4-25 4-43 0-100-40-40-27-82-70-33-32-28-73 6-57 100-119 78-50 176-50 101 0 210.5 53.5t206.5 151.5q68 68 117 144 48 76 70 153 49 170-32 296zM878 457q-20-67-63-135-43-69-106-132-44-44-92-80-47-34-95-58-47-22-93-34-45-12-87-12-77 0-137 39-35 23-52 40-16 16-17 27-1 7 8 15 39 39 72 62 39 27 60 27 2 0 3-1 5-2 12-9 11-9 38-35 35-36 49-46l2-1q21-14 48-14 24 0 52 12 27 11 61 36 41 30 106 91l3 3q76 80 107 129 16 25 24 47 7 20 8 37 2 31-15 55-10 14-44 48l-2 2q-26 26-35 37-7 9-9 13-4 16 21 55 24 37 67 80 8 8 14 8 10 0 26-15 18-17 42-54 31-48 38-106 6-62-14-131z" />
<glyph unicode="&#xe67d;" glyph-name="uniE676" d="M885 629q-73 72-177 72-49 0-94-18-46-18-82-53l-233-231q-42-41-41.5-99.5t42-100 100.5-41.5h1q59 0 100 41l205 202q10 10 10 25t-10 25q-11 10-25.5 10t-25.5-10l-204-202q-21-21-50-21h-1q-30 1-50 21-21 21-21 50.5t20 49.5l233 231q52 50 126 50t126.5-51.5 52.5-124.5-52-124l-247-245q-76-75-186-75t-187 76.5-77.5 184.5 76.5 184l319 316q10 10 10 24.5t-10 25.5q-11 10-25.5 10t-25.5-10l-319-316q-47-47-73-109-24-60-24-125t25-125q25-62 73-110 48-47 111-72 60-25 127-25 66 0 126 24 63 25 110 72l248 245q35 35 54 81 18 45 18 93 0 103-73 175z" />
<glyph unicode="&#xe67e;" glyph-name="uniE677" d="M922 518h-57v18q0 20-14 34.5t-34 14.5h-172q-12 24-33 24-70 0-145 22.5t-132 54.5-103 63.5-72 54-25 22.5q-10 6-22 6-19 0-33-13.5t-14-33.5v-801q0-20 14-34t33-14q13 0 24 7 4 6 12.5 15t35 36 55.5 52 73.5 55 89 51.5 101 36.5 111.5 15q19 0 30 22h4q2-74-25-171-6-20 1.5-39.5t24.5-31.5q16-10 35-10 22 0 40 15 84 69 105 169 7 34 6 68 4 5 10 14 19 29 19 45v23h57q15 0 25.5 10.5t10.5 25.5v138q0 15-10.5 25.5t-25.5 10.5zM584 275q-92-6-186-46-84-36-167-98-48-37-93-81v679q50-39 104-73 83-51 165-81 91-33 177-37v-263zM793 291q-6-10-14-21-5-3-8-7-11-13-8-30 4-27-3-60-13-62-59-109 29 116 18 202-2 14-12 23t-24 9h-25v30q0 4-2 9v176h137v-222zM886 380h-21v66h21v-66z" />
<glyph unicode="&#xe67f;" glyph-name="uniE678" d="M760 835h-501q-30 0-51-21t-21-51v-753q0-30 21-51t51-21h501q30 0 51 21t21 51v753q0 30-21 51t-51 21zM259 763h501v-523h-501v523zM760 10h-501v158h501v-158zM543 127h-62q-15 0-25.5-10.5t-10.5-25.5 10.5-25.5 25.5-10.5h62q15 0 25.5 10.5t10.5 25.5-10.5 25.5-25.5 10.5z" />
<glyph unicode="&#xe680;" glyph-name="uniE679" d="M925 695h-828q-15 0-25.5 10.5t-10.5 25.5 10.5 25.5 25.5 10.5h828q15 0 25.5-10.5t10.5-25.5-10.5-25.5-25.5-10.5zM99 450h565q15 0 25.5-10.5t10.5-25.5-10.5-25.5-25.5-10.5h-565q-15 0-25.5 10.5t-10.5 25.5 10.5 25.5 25.5 10.5zM97 72h825q15 0 25.5-10.5t10.5-25.5-10.5-25.5-25.5-10.5h-825q-15 0-25.5 10.5t-10.5 25.5 10.5 25.5 25.5 10.5zM827 281q-11-10-26-10t-25 11q-11 10-11 25t11 25l96 94-94 88q-11 11-11.5 26t9.5 25.5 25 11 26-9.5l121-114q11-11 11-26t-11-26z" />
<glyph unicode="&#xe681;" glyph-name="uniE67A" d="M885 450l-112 286q-4 12-14 19.5t-23 7.5h-455q-13 0-23-8t-14-20l-105-282v-1q-2-8-1-15v-371q0-25 17.5-43t42.5-18h628q25 0 43 18t18 43v366q0 3-1 4 1 7-1 14zM589 493v-16q0-34-21.5-54.5t-55.5-20.5-55 20.5-21 54.5l-1 16h-205l79 193h399l82-193h-201zM214 416h158q18-43 55-67t85-24q52 0 90 27 34 24 51 64h157v-334h-596v334z" />
<glyph unicode="&#xe682;" glyph-name="uniE67B" d="M801 596q-24 60-67 106-43 45-100 71-58 26-122 26t-122-26q-56-26-99.5-71.5t-67.5-105.5q-25-61-25-128v-436q0-26 18-45t43-19h505q26 0 44 19t18 45v436q0 67-25 128zM414 714h1l1 1q45 21 96 21 50 0 96-21 45-20 80-57t54-85q21-50 21-105v-27h-502v27q0 55 20 105 20 48 55 85t78 56zM763 377v-346h-502v346h502zM483 235v-83q0-12 8.5-20.5t20.5-8.5 21 8.5 9 20.5v83q24 16 24 46 0 22-15.5 38t-38 16-38.5-16-16-38q0-30 25-46z" />
<glyph unicode="&#xe683;" glyph-name="uniE67C" d="M876 492h-63v-103h-91v103h-153v102h-51v39h51v52h51v63h-51v51h-166v-63h103v-39h-52v-115h52v-90h-52v-52h-90v52h-63v-52h-39v52h-115v-52h-51v-63h63v51h91v-51h51v-102h63v102h102v52h193v-40h-153v-63h51v-102h114v63h-51v39h205v51h39v-51h63v63h-51v103zM466 287h-63v-166h51v-39h-51v-63h103v-51h63v51h51v63h-63v-51h-39v90h102v64h-154v102zM96 338h63v-63h-63v63zM153 531h154q23 0 40 17t17 40v154q0 23-17 40t-40 17h-154q-23 0-40-17t-17-40v-154q0-23 17-40t40-17zM159 594v142h142v-142h-142zM198 697h64v-64h-64v64zM870 799h-154q-23 0-40-17t-17-40v-154q0-23 17-40t40-17h154q24 0 40.5 17t16.5 40v154q0 23-16.5 40t-40.5 17zM864 736v-142h-142v142h142zM762 697h63v-64h-63v64zM870 236h-154q-23 0-40-17t-17-40v-154q0-24 17-40.5t40-16.5h154q24 0 40.5 16.5t16.5 40.5v154q0 23-16.5 40t-40.5 17zM864 173v-142h-142v142h142zM762 133h63v-63h-63v63zM307 236h-154q-23 0-40-17t-17-40v-154q0-24 17-40.5t40-16.5h154q23 0 40 16.5t17 40.5v154q0 23-17 40t-40 17zM301 173v-142h-142v142h142zM198 133h64v-63h-64v63z" />
<glyph unicode="&#xe684;" glyph-name="uniE67D" d="M910 352l-360 362q-12 13-30 13h-362q-26 0-44-18t-18-43v-224q0-17 12-30l359-354q18-18 43.5-18t44.5 18l28 28 28-28q19-18 44-18t44 18l210 208q18 17 18 42.5t-17 43.5zM280 457q-32 0-54.5 22.5t-22.5 54.5 22.5 54.5 54.5 22.5 54.5-22.5 22.5-54.5-22.5-54.5-54.5-22.5zM869 306l-210-207q-2-2-4-2t-4 2l-32 31 142 140q16 16 16 39t-16 39l-319 322h72l355-358q1-1 1-3t-1-3zM280 560q-11 0-18.5-7.5t-7.5-18.5 7.5-18.5 18.5-7.5 18.5 7.5 7.5 18.5-7.5 18.5-18.5 7.5z" />
<glyph unicode="&#xe685;" glyph-name="uniE67E" d="M280 617q-34 0-58.5-24t-24.5-58.5 24.5-59 58.5-24.5 58.5 24.5 24.5 59-24.5 58.5-58.5 24zM280 514q-8 0-14 6t-6 14 6 14 14 6 14-6 6-14-6-14-14-6zM910 352l-360 362q-12 13-30 13h-362q-26 0-44-18t-18-43v-224q0-17 12-30l359-354q18-18 43.5-18t44.5 18l28 28 28-28q19-18 44-18t44 18l210 208q18 17 18 42.5t-17 43.5zM765 266q18 17 18 42.5t-18 43.5l-309 312h56l351-355-208-205-27 26zM159 451v213h209l351-355-140-138-37-36-31-31z" />
<glyph unicode="&#xe686;" glyph-name="uniE67F" d="M702 35h-404q-48 0-90.5 17t-76.5 50q-34 34-52 76t-18 90q0 83 53 147 19 23 42 40 0 38 15 71 14 33 41 60l1 1q27 26 61 39.5t72 13.5q12 0 24-1 24 26 54 46 72 48 159 48 58 0 109-20 51-21 92-61 42-41 63-90 14-34 19-71 32-25 55-60l7-11v-1q35-59 35-128 0-52-19-99-20-46-58-83t-84-56q-47-18-100-18zM263 535q-18-17-26-37-9-21-9-44 0-7 1-13l2-23-19-12q-24-14-43-37-36-44-36-101 0-33 12-62t36.5-52.5 53.5-35.5q29-11 63-11h404q39 0 72.5 13.5t61 40 41.5 59.5 14 71q0 54-29 98l-2 4q-20 29-49 49l-14 10-2 17q-2 34-15 64-15 37-47 67-31 31-68 46-38 15-82 15-66 0-119-35-30-21-51-48l-15-19-23 6q-14 4-30 3-24 0-44.5-8t-37.5-25z" />
<glyph unicode="&#xe687;" glyph-name="uniE680" d="M926 411v1l-1 2q-26 39-65 66-3 43-20 82-20 48-59 86t-88 58q-48 19-103 19-84 0-152-45-38-26-65-61-21 5-42 5-34 0-64-12t-54-35q-25-24-37-53-13-30-13-64 0-10 1-18-31-19-56-49-48-59-48-135 0-44 16-83t48-70 71-46.5 84-15.5h440q50 0 94 17 44 18 79 53 36 35 54 78t18 92q0 70-38 128z" />
<glyph unicode="&#xe688;" glyph-name="uniE681" d="M926 411v1l-1 2q-26 39-65 66-3 43-20 82-20 48-59 86t-88 58q-48 19-103 19-84 0-152-45-38-26-65-61-21 5-42 5-34 0-64-12t-54-35q-25-24-37-53-13-30-13-64 0-10 1-18-31-19-56-49-48-59-48-135 0-44 16-83t48-70 71-46.5 84-15.5h440q50 0 94 17 44 18 79 53 36 35 54 78t18 92q0 70-38 128zM751.5 367.5q-10.5-10.5-25.5-10.5t-26 11l-68 68v-246q0-15-10.5-25.5t-25.5-10.5-25.5 10.5-10.5 25.5v246l-68-69q-11-10-25.5-10t-25 10.5-10.5 25.5 10 25l130 130q10 10 25 10t25-10l130-130q11-10 11-25t-10.5-25.5z" />
<glyph unicode="&#xe689;" glyph-name="uniE682" d="M926 411v1l-1 2q-26 39-65 66-3 43-20 82-20 48-59 86t-88 58q-48 19-103 19-84 0-152-45-38-26-65-61-21 5-42 5-34 0-64-12t-54-35q-25-24-37-53-13-30-13-64 0-10 1-18-31-19-56-49-48-59-48-135 0-44 16-83t48-70 71-46.5 84-15.5h440q50 0 94 17 44 18 79 53 36 35 54 78t18 92q0 70-38 128zM751 294l-129-130q-11-10-26-10t-25 10l-130 130q-10 10-10 25t10.5 25.5 25 10.5 25.5-11l68-68v246q0 15 10.5 25.5t25.5 10.5 25.5-10.5 10.5-25.5v-246l69 68q10 11 25 11t25.5-10.5 10.5-25.5-11-25z" />
<glyph unicode="&#xe68a;" glyph-name="uniE683" d="M926 411v1l-1 2q-26 39-65 66-3 43-20 82-20 48-59 86t-88 58q-48 19-103 19-84 0-152-45-38-26-65-61-21 5-42 5-34 0-64-12t-54-35q-25-24-37-53-13-30-13-64 0-10 1-18-31-19-56-49-48-59-48-135 0-44 16-83t48-70 71-46.5 84-15.5h440q50 0 94 17 44 18 79 53 36 35 54 78t18 92q0 70-38 128zM142 203q-11 25-11 55 0 25 8 47t24 42h1q17 22 40 35l38 22-6 43q-1 5-1 13 0 19 7 36v1q7 16 21 29t31 20 36 7q15 0 28-4l43-12 26 36q21 27 51 48 50 33 111 33 42 0 77-15 36-14 65-42 29-29 43-63 13-29 15-63l1-31 27-18q27-18 46-45l2-3q14-21 21-43.5t7-47.5q0-35-13-65t-38.5-54.5-55.5-36.5q-31-13-67-13h-440q-31 0-57 11-25 10-48 31-21 21-31 45zM466.5 355q14.5 0 25.5-11l68-68v246q0 15 10.5 25.5t25.5 10.5 25.5-10.5 10.5-25.5v-246l69 68q10 11 25 11t25.5-10.5 10.5-25.5-11-25l-129-130q-11-10-26-10t-25 10l-130 130q-10 10-10 25t10.5 25.5 25 10.5z" />
<glyph unicode="&#xe68b;" glyph-name="uniE684" d="M926 411v1l-1 2q-26 39-65 66-3 43-20 82-20 48-59 86t-88 58q-48 19-103 19-84 0-152-45-38-26-65-61-21 5-42 5-34 0-64-12t-54-35q-25-24-37-53-13-30-13-64 0-10 1-18-31-19-56-49-48-59-48-135 0-44 16-83t48-70 71-46.5 84-15.5h440q50 0 94 17 44 18 79 53 36 35 54 78t18 92q0 70-38 128zM142 203q-11 25-11 55 0 25 8 47t24 42h1q17 22 40 35l38 22-6 43q-1 5-1 13 0 19 7 36v1q7 16 21 29t31 20 36 7q15 0 28-4l43-12 26 36q21 27 51 48 50 33 111 33 42 0 77-15 36-14 65-42 29-29 43-63 13-29 15-63l1-31 27-18q27-18 46-45l2-3q14-21 21-43.5t7-47.5q0-35-13-65t-38.5-54.5-55.5-36.5q-31-13-67-13h-440q-31 0-57 11-25 10-48 31-21 21-31 45zM466.5 357q14.5 0 25.5 11l68 68v-246q0-15 10.5-25.5t25.5-10.5 25.5 10.5 10.5 25.5v246l69-68q10-11 25-11t25.5 10.5 10.5 25.5-11 25l-129 130q-11 10-26 10t-25-10l-130-130q-10-10-10-25t10.5-25.5 25-10.5z" />
<glyph unicode="&#xe68c;" glyph-name="uniE685" d="M512 592q-54 0-92-38.5t-38-92.5 38-92 92-38 92 38 38 92-38 92.5-92 38.5zM871 621q-31 62-86 109t-125 74q-71 26-148 26t-149-26q-69-27-124-74t-86-109q-32-64-32-133 0-97 47-197 39-83 109-164 92-108 212-192 10-7 22.5-7t23.5 7q120 85 212 192 70 82 109 164 47 100 47 197 0 69-32 133zM655 319q-59-59-143-59t-143 59-59 142.5 59 142.5 143 59 143-59 59-142.5-59-142.5z" />
<glyph unicode="&#xe68d;" glyph-name="uniE686" d="M512 663q-84 0-143-59t-59-142.5 59-142.5 143-59 143 59 59 142.5-59 142.5-143 59zM512 331q-54 0-92 38t-38 92 38 92.5 92 38.5 92-38.5 38-92.5-38-92-92-38zM871 621q-31 62-86 109t-125 74q-71 26-148 26t-149-26q-69-27-124-74t-86-109q-32-64-32-133 0-97 47-197 39-83 109-164 92-108 212-192 10-7 22.5-7t23.5 7q120 85 212 192 70 82 109 164 47 100 47 197 0 69-32 133zM831 487q0-81-40-166-34-73-98-148-77-90-181-166-104 76-181 166-63 75-98 148-40 85-40 167 0 53 24 102 25 48 69 86 45 39 102 61 60 22 124 22t124-22q57-22 102-61 45-38 69-86 24-50 24-103z" />
<glyph unicode="&#xe68e;" glyph-name="uniE687" d="M512 487q-42 0-72-30t-30-72 30-72 72-30 72 30 30 72-30 72-72 30zM963 384q0 14-21 62-26 65-61 109-57 71-139 112-99 50-230 50t-231-50q-80-41-138-112-34-43-61-109-21-48-21-62v0 0q0-14 21-62 27-66 61-109 57-71 139-112 100-50 230-50t230 50q81 41 139 112 35 44 62 109 20 48 20 62v0 0zM512 212q-72 0-122.5 50.5t-50.5 122 50.5 122.5 122.5 51 122.5-51 50.5-122.5-50.5-122-122.5-50.5z" />
<glyph unicode="&#xe68f;" glyph-name="uniE688" d="M963 384q0 14-21 62-26 65-61 109-57 71-139 112-99 50-230 50t-231-50q-80-41-138-112-34-43-61-109-21-48-21-62v0 0q0-14 21-62 27-66 61-109 57-71 139-112 100-50 230-50t230 50q81 41 139 112 35 44 62 109 20 48 20 62v0 0zM889 384q-25-77-64-126h-1q-46-59-114-93-85-42-198.5-42t-198.5 42q-67 34-114 93-40 49-65 126 25 77 65 126 47 59 114 93 85 43 199 43t198-43q67-33 114-93 40-49 65-126zM512 558q-72 0-122.5-50.5t-50.5-122.5 50.5-122.5 122.5-50.5 122.5 50.5 50.5 122.5-50.5 122.5-122.5 50.5zM614 385q0-42-30-72t-72-30-72 30-30 72 30 72 72 30 72-30 30-72z" />
<glyph unicode="&#xe690;" glyph-name="uniE689" d="M899 659h-168l-94 100h-1q-10 10-26 10h-196q-16 0-27-10l-94-100h-168q-26 0-44.5-18.5t-18.5-44.5v-532q0-26 18.5-44.5t44.5-18.5l774-1q26 0 44.5 19t18.5 45v532q0 26-18.5 44.5t-44.5 18.5zM428 696h168l35-37h-238zM511 164q-72 0-123 51t-51 123 51 123 123 51 123-51 51-123-51-123-123-51zM511 440q-42 0-72-30t-30-72.5 30-72.5 72.5-30 72.5 30 30 72.5-30 72.5-73 30z" />
<glyph unicode="&#xe691;" glyph-name="uniE68A" d="M511 164q72 0 123 51t51 123-51 123-123 51-123-51-51-123 51-123 123-51zM439 410q30 30 72.5 30t72.5-30 30-72.5-30-72.5-72.5-30-72.5 30-30 72.5 30 72.5zM899 659h-168l-94 100h-1q-10 10-26 10h-196q-16 0-27-10l-94-100h-168q-26 0-44.5-18.5t-18.5-44.5v-532q0-26 18.5-44.5t44.5-18.5l774-1q26 0 44.5 19t18.5 45v532q0 26-18.5 44.5t-44.5 18.5zM428 696h168l35-37h-238zM881 81h-739v497h739v-497z" />
<glyph unicode="&#xe692;" glyph-name="uniE68B" d="M527 27l434-71v401h-434v-330zM527 758v-329h434v401zM68 429h367v317l-367-61v-256zM68 99l367-60v318h-367v-258z" />
<glyph unicode="&#xe693;" glyph-name="uniE68C" d="M584 663q32 11 64 42 36 37 53 80t17 79v13q-2 6-2 8 0 1-0.5 2t-0.5 2l-2 7-7-2q-101-23-144-86-44-62-45-148v-8l7 1q39 4 60 10zM924 151q-50 15-89 71-39 57-39 128 0 65 37 118 20 29 66 68l5 5-4 5q-32 40-63 61-57 40-130 39-44 0-105-20-57-20-82-20-20 0-79 18-63 18-107 18-52 0-96-22-43-22-77-66-68-88-68-225 0-74 22-149 22-74 66-152 89-156 183-156 31 0 81 20 47 19 81 19 37 0 87-18 56-20 85-20 80 0 158 119 50 76 73 150l2 7z" />
<glyph unicode="&#xe694;" glyph-name="uniE68D" d="M888.5 601.5q-24.5 24.5-60.5 24.5-6 0-13-1v1h-4q-9 53-43 100-32 44-81 74l29 41v6l1 2q1 7 1 10 0 16-10 26.5t-26 10.5q-18 0-30-18l-33-48q-53 18-107 18t-107-18l-33 48q-12 18-30 18-16 0-26-10.5t-10-26.5q0-11 7-19l26-37q-50-30-82-75-34-47-42-100h-6v-1q-6 1-12 1-37 0-61-24t-24-60v-269q0-36 24-60.5t60-24.5q6 0 13 1v-107q0-25 17.5-42.5t42.5-17.5h37v-67q0-36 24-60.5t60.5-24.5 60.5 24.5 24 60.5v66h73v-66q0-36 24.5-60.5t60.5-24.5 61 25q24 24 24 60v67h36q25 0 43 17.5t18 42.5v105q6-1 12-1 36 0 60.5 24.5t24.5 60.5v268q1 36-23.5 60.5zM209 272q0-12-12-12t-12 12v269q0 12 12 12t12-12v-269zM358 726q66 48 154 48t154-48q56-42 71-100h-450q15 58 71 100zM403-45q-1-10-12-10-12 0-12 12v67h24v-69zM646-45q-2-10-12-10-13 0-13 12v67h25v-69zM743 96h-461v457h461v-457zM840 272q0-12-12.5-12t-12.5 12v269q0 12 12.5 12t12.5-12v-269zM585 712q-16 0-26-10.5t-10-26.5 10-26 26-10 26.5 10 10 26-10.5 26.5-26 10.5zM439.5 712q-15.5 0-26-10.5t-10.5-26.5 10.5-26 26-10 26 10 10.5 26-10.5 26.5-26 10.5z" />
<glyph unicode="&#xe695;" glyph-name="uniE68E" d="M927 541q-33 79-95 140-60 61-140 94-81 35-171 35-74 0-142-23-114 53-263 53h-11q-22-1-34-19.5t-4-38.5l75-188q-62-103-62-225 0-89 35-171 33-79 94-140t140-95q82-34 171.5-34t171.5 34q79 34 141 95 61 61 94 140 35 82 35 172-1 90-35 171zM549 455q0-18-13-31t-31-13-30.5 13-12.5 31v65q0 18 12.5 31t30.5 13 31-13 13-31v-65zM757 455q0-18-12.5-31t-31-13-31 13-12.5 31v65q0 18 12.5 31t30.5 13 31-13 13-31v-65z" />
<glyph unicode="&#xe696;" glyph-name="uniE68F" d="M713 564q-18 0-30.5-13t-12.5-31v-65q0-18 12.5-31t31-13 31 13 12.5 31v65q0 18-13 31t-31 13zM505 564q-18 0-30.5-13t-12.5-31v-65q0-18 12.5-31t30.5-13 31 13 13 31v65q0 18-13 31t-31 13zM927 541q-33 79-95 140-60 61-140 94-81 35-171 35-74 0-142-23-114 53-263 53h-11q-22-1-34-19.5t-4-38.5l75-188q-62-103-62-225 0-89 35-171 33-79 94-140t140-95q82-34 171.5-34t171.5 34q79 34 141 95 61 61 94 140 35 82 35 172-1 90-35 171zM861 226q-28-67-79-117-52-51-118-79-68-29-143-29t-144 29q-66 28-117 79t-79 117q-29 68-29 143 0 51 14 100 13 48 39 91l17 27-72 180q32-2 62-7 80-12 139-40l24-11 25 9q58 20 121 20 75 0 143-29 67-28 118-79t79-117q29-68 29-143.5t-29-143.5z" />
<glyph unicode="&#xe697;" glyph-name="uniE690" d="M248.5 473q14.5 0 25 10.5t10.5 25.5v203q0 8 5.5 13.5t13.5 5.5h567q8 0 13-5.5t5-13.5v-587q0-7-5-12.5t-13-5.5h-255q-15 0-25.5-10.5t-10.5-25.5 10.5-25.5 25.5-10.5h255q37 0 63.5 26.5t26.5 63.5v587q0 38-26.5 64t-63.5 26h-567q-38 0-64-26t-26-64v-203q0-15 10.5-25.5t25-10.5zM622 263q44 66 55 136 2 14-7 26t-23 14q-3 1-5 1-14 0-24-9t-12-22l-4-17q-2-13-13.5-40.5t-26.5-50.5q-70-104-206-104h-4q-14 0-25-10.5t-11-25.5v-42l-100 96 101 84v-35q0-14 10.5-24.5t25-10.5 25 10.5 10.5 24.5v111q0 23-20 33-7 3-16 3-12 0-22-8l-190-159q-13-10-13-26-1-16 11-27l190-181q17-16 38.5-7t21.5 33v91q152 13 234 136z" />
<glyph unicode="&#xe698;" glyph-name="uniE691" d="M838 330q-15 0-25.5-10.5t-10.5-25.5v-204q0-8-5.5-13t-12.5-5h-567q-8 0-13.5 5t-5.5 13v587q0 8 5.5 13.5t13.5 5.5h254q15 0 25.5 10.5t10.5 25-10.5 25-25.5 10.5h-254q-37 0-63.5-26t-26.5-64v-587q0-37 26.5-63.5t63.5-26.5h567q37 0 63.5 26.5t26.5 63.5v204q0 15-10.5 25.5t-25.5 10.5zM464 540q-45-68-54-136-2-15 7-26.5t23-13.5q2-1 5-1 13 0 23.5 9t12.5 22q0 5 3 17.5t14 40 27 50.5q70 103 206 104l3-1q15 0 25.5 10.5t10.5 25.5v42l101-95-101-84v34q0 15-10.5 25.5t-25.5 10.5-25.5-10.5-10.5-25.5v-111q0-22 21-32 7-3 15-3 13 0 23 8l190 158q12 11 13 26 0 17-11 28l-190 181q-17 16-39 6.5t-22-32.5v-91q-152-13-234-136z" />
<glyph unicode="&#xe699;" glyph-name="uniE692" d="M862 68h-701q-14 0-24-10t-10-24.5 10-24.5 24-10h701q14 0 24 10t10 24.5-10 24.5-24 10zM334 171q7 0 14 3h1l197 92 332 332q18 18 18 43t-18 42l-67 67q-18 18-42.5 18t-42.5-18l-331-330-2-4-91-194q-9-18 2-35 11-16 30-16zM728 656l40 40 55-55-40-40zM402 275l49 103 229 229 55-55-229-229z" />
<glyph unicode="&#xe69a;" glyph-name="uniE693" d="M512 895q-104 0-199-40.5t-163.5-109-109-163-40.5-199 40.5-199 109-163 163.5-109 199-40.5 198.5 40.5 163 109 109 163 40.5 199-40.5 199-109 163-163 109-198.5 40.5zM822 73q-61-61-139-94-82-35-171.5-35t-171.5 35q-79 33-139.5 94t-94.5 140q-34 81-34 170.5t35 171.5q33 79 94 139.5t140 94.5q81 34 170.5 34t171.5-34q79-34 139.5-95t94.5-139q34-82 34-171.5t-34-171.5q-34-78-95-139zM768 520q-16 0-28-12l-229-229-228 228q-12 12-28.5 12t-28-11.5-11.5-28 12-28.5l256-255q11-12 27.5-12t28.5 12l257 256q12 12 12 28.5t-12 27.5q-12 12-28 12z" />
<glyph unicode="&#xe69b;" glyph-name="uniE694" d="M512 895q-104 0-199-40.5t-163.5-109-109-163-40.5-199 40.5-199 109-163 163.5-109 199-40.5 198.5 40.5 163 109 109 163 40.5 199-40.5 199-109 163-163 109-198.5 40.5zM796 452l-258-256q-11-12-27-12-17 0-28 12l-256 255q-12 12-12 28.5t11.5 28 28 11.5 28.5-12l227-228 230 229q12 12 28.5 12t28-11.5 11.5-28.5q0-16-12-28z" />
<glyph unicode="&#xe69c;" glyph-name="uniE695" d="M380 335h-233q-34 0-58.5-24.5t-24.5-58.5v-233q0-34 24.5-58.5t58.5-24.5h233q34 0 58.5 24.5t24.5 58.5v233q0 34-24.5 58.5t-58.5 24.5zM395 19q0-6-5-11-4-4-10-4h-233q-6 0-10.5 4.5t-4.5 10.5v233q0 6 4.5 10.5t10.5 4.5h233q6 0 10.5-4.5t4.5-10.5v-233zM380 831h-233q-34 0-58.5-24.5t-24.5-58.5v-233q0-34 24.5-58.5t58.5-24.5h233q34 0 58.5 24.5t24.5 58.5v233q0 34-24.5 58.5t-58.5 24.5zM395 515q0-6-5-11-4-4-10-4h-233q-6 0-10.5 4.5t-4.5 10.5v233q0 6 4.5 10.5t10.5 4.5h233q6 0 10.5-4.5t4.5-10.5v-233zM876 335h-233q-34 0-58.5-24.5t-24.5-58.5v-233q0-34 24.5-58.5t58.5-24.5h233q35 0 59 24.5t24 58.5v233q0 34-24.5 58.5t-58.5 24.5zM891 19q0-6-4-11-5-4-11-4h-233q-6 0-10.5 4.5t-4.5 10.5v233q0 6 4.5 10.5t10.5 4.5h233q6 0 10.5-4.5t4.5-10.5v-233zM876 831h-233q-34 0-58.5-24.5t-24.5-58.5v-233q0-34 24.5-58.5t58.5-24.5h233q35 0 59 24.5t24 58.5v233q0 34-24.5 58.5t-58.5 24.5zM891 515q0-6-4-11-5-4-11-4h-233q-6 0-10.5 4.5t-4.5 10.5v233q0 6 4.5 10.5t10.5 4.5h233q6 0 10.5-4.5t4.5-10.5v-233z" />
<glyph unicode="&#xe69d;" glyph-name="uniE696" d="M380 335h-233q-34 0-58.5-24.5t-24.5-58.5v-233q0-34 24.5-58.5t58.5-24.5h233q34 0 58.5 24.5t24.5 58.5v233q0 34-24.5 58.5t-58.5 24.5zM380 831h-233q-34 0-58.5-24.5t-24.5-58.5v-233q0-34 24.5-58.5t58.5-24.5h233q34 0 58.5 24.5t24.5 58.5v233q0 34-24.5 58.5t-58.5 24.5zM876 335h-233q-34 0-58.5-24.5t-24.5-58.5v-233q0-34 24.5-58.5t58.5-24.5h233q35 0 59 24.5t24 58.5v233q0 34-24.5 58.5t-58.5 24.5zM876 831h-233q-34 0-58.5-24.5t-24.5-58.5v-233q0-34 24.5-58.5t58.5-24.5h233q35 0 59 24.5t24 58.5v233q0 34-24.5 58.5t-58.5 24.5z" />
<glyph unicode="&#xe69e;" glyph-name="uniE697" d="M128.5 584q13.5 0 23 9.5t9.5 22.5v99q0 8 5.5 13.5t13.5 5.5h99q13 0 22.5 9.5t9.5 23-9.5 23-22.5 9.5h-126q-23 0-40-17t-17-40v-126q0-13 9.5-22.5t23-9.5zM279 33h-99q-8 0-13.5 5.5t-5.5 13.5v98q0 14-9.5 23.5t-23 9.5-23-9.5-9.5-23.5v-125q0-24 17-40.5t40-16.5h126q13 0 22.5 9.5t9.5 23-9.5 23-22.5 9.5zM894.5 183q-13.5 0-23-9.5t-9.5-23.5v-98q0-8-5.5-13.5t-13.5-5.5h-99q-13 0-22.5-9.5t-9.5-23 9.5-23 22.5-9.5h126q24 0 40.5 16.5t16.5 40.5v125q0 14-9.5 23.5t-23 9.5zM870 799h-126q-13 0-22.5-9.5t-9.5-23 9.5-23 22.5-9.5h99q8 0 13.5-5.5t5.5-13.5v-99q0-13 9.5-22.5t23-9.5 23 9.5 9.5 22.5v126q0 23-16.5 40t-40.5 17zM250 588v-409q0-24 16.5-41t40.5-17h409q24 0 41 17t17 41v409q0 24-17 40.5t-41 16.5h-409q-24 0-40.5-16.5t-16.5-40.5zM311 202v362q0 8 6 14t14 6h361q9 0 14.5-6t5.5-14v-362q0-8-5.5-13.5t-14.5-5.5h-361q-8 0-14 5.5t-6 13.5z" />
<glyph unicode="&#xe69f;" glyph-name="uniE698" d="M638 799h-372q-28 0-47.5-19t-19.5-46v-702q0-26 19.5-45t47.5-19h492q28 0 47.5 19t19.5 45v557zM615 531h147v-498q-1-2-4-2h-492q-3 0-4 2v701q1 2 4 2h291v-148q0-23 17-40t41-17zM621 594v129l115-129h-115zM333 490q-12 0-21-8.5t-9-21 9-21 21-8.5h205q12 0 20.5 8.5t8.5 21-8.5 21-20.5 8.5h-205zM303 306.5q0-12.5 9-21t21-8.5h359q12 0 20.5 8.5t8.5 21-8.5 21-20.5 8.5h-359q-12 0-21-8.5t-9-21zM538 183h-205q-12 0-21-9t-9-21 9-21 21-9h205q12 0 20.5 9t8.5 21-8.5 21-20.5 9z" />
<glyph unicode="&#xe6a0;" glyph-name="uniE699" d="M918 448q-11 13-27 15v86q0 25-18 43t-43 18h-339q-2 1-2 2l-14 56q-5 23-24.5 38t-42.5 15h-251q-25 0-43-18t-18-43v-554q0-21 13-38l3-3q18-20 45-20h247q39 0 82.5-0.5t81.5-0.5q159 0 232 1 20 0 36.5 13.5t20.5 33.5l34 156 35 164q5 20-8 36zM427 596h1q5-21 22-34 19-15 40-15h338v-84h-598q-15 0-27-9t-15-24l-29-134v362h249q1 0 4-2l2-2zM859 400l-31-144-32-148h-613l63 292h613z" />
<glyph unicode="&#xe6a1;" glyph-name="uniE69A" d="M786 765q-4 15-17 24.5t-29 9.5h-462q-16 0-29-9.5t-17-24.5q-3-8-68-243-68-245-68-248v-257q0-20 14.5-34.5t34.5-14.5h733q20 0 34.5 14.5t14.5 34.5l1 265zM864 224v-193h-705v193h705zM861 287h-699l127 449h440zM588 70q13 0 22.5 9.5t9.5 22.5v51q0 13-9.5 22.5t-22.5 9.5-22-9.5-9-22.5v-51q0-13 9-22.5t22-9.5zM691 70q13 0 22.5 9.5t9.5 22.5v51q0 13-9.5 22.5t-22.5 9.5-22-9.5-9-22.5v-51q0-13 9-22.5t22-9.5zM794 70q13 0 22 9.5t9 22.5v51q0 13-9 22.5t-22 9.5-22.5-9.5-9.5-22.5v-51q0-13 9.5-22.5t22.5-9.5z" />
<glyph unicode="&#xe6a2;" glyph-name="uniE69B" d="M878 548q24 66 22 118-3 57-37 91-33 33-111.5 27.5t-173.5-47.5q-13 1-27 1-65 0-126-21-58-21-107-60-101-80-132-203l-7-28 17 22q69 89 150 136-22-21-25-25-73-73-126-159-49-80-75-160-25-75-24-135t28-88q37-36 99-36 69 0 160 44 78-39 168-39 121 0 219 70t137 184l3 8h-213l-1-3q-21-38-58-60t-80.5-22-80.5 22-57 60q-18 32-19 69h523l1 5q2 20 2 43 0 100-49 186zM201 222q45-111 146-177-54-23-95-26-45-3-67 20-23 23-19 71t35 112zM859 578q-30 42-70 75-39 32-85 53 108 42 149 1 37-38 6-129zM402 423q5 57 48 96t101 39 100.5-39 48.5-96h-298z" />
<glyph unicode="&#xe6a3;" glyph-name="uniE69C" d="M638 800h-372q-28 0-47.5-19t-19.5-46v-702q0-27 19.5-46t47.5-19h492q28 0 47.5 19t19.5 46v557zM262 735q1 1 4 1h291v-147q0-24 17-40.5t40-16.5h148v-499q-1-1-4-1h-492q-3 0-4 1v702zM620 595v129l116-129h-116zM322 282l24 18q8-15 20-15 18 0 18 25v94h35v-97q0-23-12.5-37.5t-35.5-14.5q-33 0-49 27zM452 404h51q59 0 59-48 0-24-16.5-37t-41.5-13h-17v-49h-35v147zM502 334q26 0 26 22 0 20-27 20h-14v-42h15zM580 330q0 35 21 56t51 21q28 0 47-19l-19-23q-12 12-27 12-16 0-26.5-12.5t-10.5-33.5q0-46 40-46 9 0 14 4v24l-23-1v29h55v-68q-19-18-49-18-32 0-52.5 19.5t-20.5 55.5z" />
<glyph unicode="&#xe6a4;" glyph-name="uniE69D" d="M928 444q-7 30-26 53.5t-41 36.5q-32 18-71 18h-91q14 42 18 95v3q0 56-16 96-15 38-45 61-28 20-64 23-29 2-59-7-42-14-61-56-10-22-16-65l-1-1v-5q-2-12-4-21-18-82-74-141-30-32-62-50-22-14-49-14h-105q-29 0-49-20t-20-49v-337q0-28 20-48.5t48-20.5h148q29 0 86-18h1q38-12 61.5-18.5t74.5-13.5 109-7h2q116 0 169 60 26 28 33 64 2 10 2 13 36 27 45 66 8 32-3 65 30 29 35 65 5 32-10 65 12 24 17 48 5 30-2 60zM847 314q12-16 9-34-3-19-29-36-12-8-14.5-21.5t5.5-25.5q11-24 7-41-4-19-29-34-19-11-17-33 1-2 0.5-7.5t-5-17.5-14.5-22q-33-36-119-36h-1q-53 0-99 6t-68.5 12-56.5 17q-58 19-91 22v350q13 5 25 12 40 24 76 63 69 72 91 172l6 30q5 36 11 49.5t20 17.5q37 12 62-6 33-24 34-100-4-52-20-89-12-28 5-53t46-25h109q21 0 37-10 28-15 35-47 8-33-17-73-13-21 2-40zM160 401q0 1 1 1h96v-339h-96q-1 0-1 1v337z" />
<glyph unicode="&#xe6a5;" glyph-name="uniE69E" d="M930 384q-5 25-17 48 15 33 10 65-5 36-35 65 11 33 4 65-10 39-46 67 0 3-2 12-7 37-33 65-53 59-169 59h-2q-58 0-109-7t-75-13.5-60-18.5h-2q-56-18-86-18h-148q-28 0-48-20t-20-49v-337q0-29 20-49t49-20h105q27 0 49-13 32-20 62-51 56-59 74-141 2-7 4-21 0-1 1-5v-1q7-43 16-64 19-43 61-57 29-9 59-7 37 3 64 24 30 22 46 60 16 40 16 96v3q-3 49-19 95h92q38 0 70 18 22 13 41 36.5t27 54.5q6 29 1 59zM845 414q25-40 17-73-7-32-35-48-16-9-37-9h-109q-30 0-46-25-17-25-5-53 16-37 19-89 0-76-33-100-25-18-62-7-14 5-20 18.5t-11 49.5l-6 30q-22 100-91 172-36 39-76 63-13 7-25 12v351q33 2 91 21 34 11 56.5 17t68.5 12 99 6h2q85 0 118-36 10-10 14.5-22t5-17.5-0.5-7.5q-2-22 17-32 25-15 29-34 5-22-7-42-8-12-5.5-25.5t14.5-21.5q26-17 29-36 3-17-9-34-15-19-2-40zM160 704v1h97v-339h-96q-1 0-1 1v337z" />
<glyph unicode="&#xe6a6;" glyph-name="uniE69F" d="M178-50q-1 0-3 1l1-1h2zM170-46q-3 2-5 3 2-1 5-3zM950.5 692.5q-10.5 10.5-26.5 10.5h-184v58q0 29-21 49.5t-50 20.5h-314q-30 0-50.5-20.5t-20.5-49.5v-58h-185q-15 0-25.5-10.5t-10.5-25 10.5-25 25.5-10.5h31v-623q0-29 21-49.5t50-20.5h632q29 0 50 20.5t21 49.5v623h20q15 0 26 10.5t11 25-10.5 25zM354 760h315v-57h-315v57zM833 9h-632v623h632v-623zM511.5 512q-14.5 0-25-10.5t-10.5-25.5v-334q0-15 10.5-25.5t25-10.5 25 10.5 10.5 25.5v334q0 15-10.5 25.5t-25 10.5zM317 512q-15 0-25.5-10.5t-10.5-25.5v-334q0-15 10.5-25.5t25.5-10.5 25.5 10.5 10.5 25.5v334q0 15-10.5 25.5t-25.5 10.5zM704 512q-15 0-25.5-10.5t-10.5-25.5v-334q0-15 10.5-25.5t25.5-10.5 25.5 10.5 10.5 25.5v334q0 15-10.5 25.5t-25.5 10.5z" />
<glyph unicode="&#xe6a7;" glyph-name="uniE6A0" d="M900 510v192q0 17-11.5 28.5t-28 11.5-28.5-11.5-12-28.5v-192q0-92-65-157t-157-65h-340l113 112q11 12 11 28.5t-11.5 28-28 11.5-28.5-12l-178-178q-12-12-12-28.5t12-28.5l183-183q12-12 28.5-12t28.5 11.5 12 28-12 28.5l-114 114h336q125 0 213.5 88.5t88.5 213.5z" />
<glyph unicode="&#xe6a8;" glyph-name="uniE6A1" d="M303 728q2-10 1-20l-1-36 29-23 244-194 37 12q44 15 90 15 49 0 95-16 26-10 51-24l-169-170-56-56-169-170q-27 45-36 96-13 72 10 141l12 37-24 30-193 243-36-1h-4q-8 0-16 1zM318 831q-14 0-24-10l-219-219q-11-11-9.5-27t14.5-24q48-31 104-31h6l170-215q-28-84-11.5-175.5t74.5-163.5q11-13 27-13 14 0 24 10l206 207 223-223q10-10 23.5-10t23 9.5 9.5 23-10 23.5l-223 223 206 207q11 11 10 26t-13 25q-98 80-226 80-57 0-112-18l-215 170q2 60-30 110-10 15-28 15z" />
<glyph unicode="&#xe6a9;" glyph-name="uniE6A2" d="M949-7l-223 223 206 207q11 11 10 26t-13 25q-72 58-163 74t-175-12l-215 170q2 60-30 110-9 13-25 14.5t-27-9.5l-219-219q-11-11-9.5-27t14.5-24q50-33 110-31l170-215q-28-84-11.5-175.5t74.5-163.5q10-12 25-13t26 10l206 207 223-223q10-10 23.5-10t23 9.5 9.5 23-10 23.5z" />
<glyph unicode="&#xe6aa;" glyph-name="uniE6A3" horiz-adv-x="1025" d="M1000 648q-23 56-66 99-84 85-201 85-64 0-121.5-28t-99.5-79q-42 51-99.5 79t-121.5 28q-117 0-201-86-43-43-66-99-25-59-24-122 1-69 29-130.5t79-104.5q5-4 9-8 14-12 113-102 208-191 257-235 11-9 25-9t25 9q33 30 181 165 158 144 196 179 52 43 81 105t29 132q0 64-24 122z" />
<glyph unicode="&#xe6ab;" glyph-name="uniE6A4" horiz-adv-x="1025" d="M1000 648q-23 56-66 99-84 85-201 85-64 0-121.5-28t-99.5-79q-42 51-99.5 79t-121.5 28q-117 0-201-86-43-43-66-99-25-59-24-122 1-69 29-130.5t79-104.5q5-4 9-8 14-12 113-102 208-191 257-235 11-9 25-9t25 9q33 30 181 165 158 144 196 179 52 43 81 105t29 132q0 64-24 122zM568 672q30 40 73.5 61.5t91.5 21.5q85 0 147-62 32-32 49-74 18-44 18-93 0-53-22-101-22-46-60-77l-2-2q-62-55-197-180-108-98-154-140-58 53-202 184l-48 44q-76 69-94 85-1 2-2 3-6 4-8 7-39 32-60 78.5t-21 97.5q-1 49 18 93 17 42 49 74 62 63 147 63 48 0 91.5-22t73.5-61q21-28 56-28t56 28z" />
<glyph unicode="&#xe6ac;" glyph-name="uniE6A5" horiz-adv-x="1025" d="M511.5 895q-104.5 0-199-40.5t-163-109-109-163-40.5-199 40.5-199 109-163 163-109 199-40.5 199 40.5 163 109 109 163 40.5 199-40.5 199-109 163-163 109-199 40.5zM372 668.5q11 11.5 27 11.5t27-11l86-86 87 86q11 11 27 11t27-11 11-27-11-28l-113-113q-11-11-27-11t-27 11l-114 113q-11 12-11 27.5t11 27zM716 376h-165v-100h106q16 0 27-11.5t11-27.5-11-27-27-11h-106v-74q0-16-11.5-27t-27-11-27 11-11.5 27v74h-104q-16 0-27 11t-11 27 11 27.5 27 11.5h104v100h-163q-16 0-27.5 11t-11.5 27 11.5 27 27.5 11h405q16 0 27-11t11-27-11-27-27-11z" />
<glyph unicode="&#xe6ad;" glyph-name="uniE6A6" horiz-adv-x="1025" d="M486 501q11-11 27-11t27 11l113 113q11 12 11 27.5t-11 27-27 11.5-27-11l-87-86-86 86q-11 11-27 11t-27-11.5-11-27 11-27.5zM716 453h-405q-16 0-27.5-11.5t-11.5-27.5 11.5-27 27.5-11h163v-100h-104q-16 0-27-11.5t-11-27.5 11-27 27-11h104v-74q0-16 11-27t27-11 27.5 11 11.5 27v74h106q16 0 27 11t11 27-11 27.5-27 11.5h-106v100h165q16 0 27 11t11 27-11 27.5-27 11.5zM511.5 895q-104.5 0-199-40.5t-163-109-109-163-40.5-199 40.5-199 109-163 163-109 199-40.5 199 40.5 163 109 109 163 40.5 199-40.5 199-109 163-163 109-199 40.5zM822 73q-61-61-140-94-81-35-170.5-35t-171.5 35q-79 33-139.5 94t-94.5 140q-34 81-34 170.5t34 171.5q34 79 95 139.5t139 94.5q82 34 171.5 34t171.5-34q79-34 139.5-95t94.5-139q34-82 34-171.5t-34-171.5q-34-78-95-139z" />
<glyph unicode="&#xe6ae;" glyph-name="uniE6A7" d="M512 896q-139 0-257-68.5t-186.5-186.5-68.5-257 68.5-257 186.5-186.5 257-68.5 257 68.5 186.5 186.5 68.5 257-68.5 257-186.5 186.5-257 68.5zM254 454q-25 0-42.5 17.5t-17.5 42 17.5 42.5 42.5 18 42.5-18 17.5-42.5-17.5-42-42.5-17.5zM512 130q-68 0-116 48.5t-48 116.5q0 15 10.5 25.5t25.5 10.5 25.5-10.5 10.5-25.5q0-38 27-65.5t65-27.5 65 27.5 27 65.5q0 15 10.5 25.5t25.5 10.5 25.5-10.5 10.5-25.5q0-68-48-116.5t-116-48.5zM769.5 454q-24.5 0-42 17.5t-17.5 42 17.5 42.5 42 18 42.5-18 18-42.5-18-42-42.5-17.5z" />
<glyph unicode="&#xe6af;" glyph-name="uniE6A8" d="M512 896q-139 0-257-68.5t-186.5-186.5-68.5-257 68.5-257 186.5-186.5 257-68.5 257 68.5 186.5 186.5 68.5 257-68.5 257-186.5 186.5-257 68.5zM823 73q-61-61-140-94-81-35-171-35t-171 34q-79 34-140 95t-94 140q-35 81-35 171t34 171q34 79 95 140t140 94q81 35 171 35t171-34q79-34 140-95t94-140q35-81 35-171t-34-171q-34-79-95-140zM640 331q-15 0-25.5-10.5t-10.5-25.5q0-38-27-65.5t-65-27.5-65 27.5-27 65.5q0 15-10.5 25.5t-25.5 10.5-25.5-10.5-10.5-25.5q0-68 48-116.5t116-48.5 116 48.5 48 116.5q0 15-10.5 25.5t-25.5 10.5zM194 513.5q0 24.5 17.5 42.5t42.5 18 42.5-18 17.5-42.5-17.5-42-42.5-17.5-42.5 17.5-17.5 42zM710 513.5q0 24.5 17.5 42.5t42 18 42.5-18 18-42.5-18-42-42.5-17.5-42 17.5-17.5 42z" />
<glyph unicode="&#xe6b0;" glyph-name="uniE6A9" d="M512 896q-139 0-257-68.5t-186.5-186.5-68.5-257 68.5-257 186.5-186.5 257-68.5 257 68.5 186.5 186.5 68.5 257-68.5 257-186.5 186.5-257 68.5zM823 73q-61-61-140-94-81-35-171-35t-171 34q-79 34-140 95t-94 140q-35 81-35 171t34 171q34 79 95 140t140 94q81 35 171 35t171-34q79-34 140-95t94-140q35-81 35-171t-34-171q-34-79-95-140zM640 130q-15 0-25.5 11t-10.5 25q0 39-27 66t-65 27-65-27-27-66q0-14-10.5-25t-25.5-11-25.5 11-10.5 25q0 68 48 116.5t116 48.5 116-48.5 48-116.5q0-14-10.5-25t-25.5-11zM194 513.5q0 24.5 17.5 42.5t42.5 18 42.5-18 17.5-42.5-17.5-42-42.5-17.5-42.5 17.5-17.5 42zM710 513.5q0 24.5 17.5 42.5t42 18 42.5-18 18-42.5-18-42-42.5-17.5-42 17.5-17.5 42z" />
<glyph unicode="&#xe6b1;" glyph-name="uniE6AA" d="M857 832h-689q-16 0-27.5-11.5t-11.5-27.5v-818q0-16 11.5-27.5t27.5-11.5h689q16 0 27 11.5t11 27.5v818q0 16-11 27.5t-27 11.5zM818 14h-612v740h612v-740zM324 410h377q16 0 27.5 11.5t11.5 27.5v185q0 16-11.5 27.5t-27.5 11.5h-377q-16 0-27.5-11.5t-11.5-27.5v-185q0-16 11.5-27.5t27.5-11.5zM362 595h300v-108h-300v108zM293 189h23v-23q0-16 11.5-27.5t27.5-11.5 27.5 11.5 11.5 27.5v23h23q16 0 27.5 11.5t11.5 27.5-11.5 27-27.5 11h-23v24q0 16-11.5 27t-27.5 11-27.5-11-11.5-27v-24h-23q-16 0-27.5-11t-11.5-27 11.5-27.5 27.5-11.5zM607 328q-16 0-27.5-11t-11.5-27 11.5-27.5 27.5-11.5h124q16 0 27.5 11.5t11.5 27.5-11.5 27-27.5 11h-124zM731 162h-124q-16 0-27.5-11.5t-11.5-27.5 11.5-27.5 27.5-11.5h124q16 0 27.5 11.5t11.5 27.5-11.5 27.5-27.5 11.5z" />
<glyph unicode="&#xe6b2;" glyph-name="uniE6AB" d="M512-96q-19 0-30 15l-74 101q-178 30-293 147.5t-115 269.5q0 116 68.5 214.5t186.5 155.5 257 57 257-57 186.5-155.5 68.5-214.5q0-152-115-269.5t-293-147.5l-74-101q-11-15-30-15v0zM512 794q-119 0-220-47.5t-160-129.5-59-178q0-129 102-228t259-122q16-2 25-14l53-73 53 73q9 12 25 14 157 23 259 122t102 228q0 96-59 178t-160 129.5-220 47.5v0zM300 386q-23 0-39.5 16t-16.5 38 16.5 38 39 16 39-16 16.5-38-16.5-38-38.5-16v0zM686 386q-23 0-39 16t-16 38 16 38 39 16 39-16 16-38-16-38-39-16v0zM493 386q-23 0-39 16t-16 38 16 38 39 16 39-16 16-38-16-38-39-16v0z" />
<glyph unicode="&#xe6b3;" glyph-name="uniE6AC" horiz-adv-x="1025" d="M258 449l-146 254q71 90 176 141.5t224 51.5q138 0 255.5-68t185.5-183h-418q-11 1-23 1-90 0-161-55.5t-93-141.5zM695 571h294q35-90 35-187 0-103-40-197.5t-107.5-163-161.5-109.5-197-42l209 363q47 67 47 149 0 110-79 187v0zM326 384q0 77 54.5 131.5t131.5 54.5 131.5-54.5 54.5-131.5-54.5-131.5-131.5-54.5-131.5 54.5-54.5 131.5zM582 131l-146-253q-122 18-222 89t-157 181-57 236q0 135 66 251l209-362q32-68 96-109.5t141-41.5q36 0 70 9z" />
<glyph unicode="&#xe6b4;" glyph-name="uniE6AD" horiz-adv-x="1025" d="M0 371q0-166 95.5-298.5t247.5-185.5q6-1 10-1t6.5 1.5 4 3 2 5 0.5 4.5v101q-37-4-66 0.5t-45.5 14-29 23.5-17 25.5-9 24-5.5 14.5q-9 15-27 27.5t-27 20-2 14.5q50 26 113-66 34-51 119-30 10 41 40 70-116 21-172 86t-56 158q0 87 55 151-22 65 6 137 29 2 65-11.5t50.5-23 25.5-17.5q57 16 128.5 16t129.5-16q13 9 29 19t49 21.5 61 9.5q27-71 7-135 56-64 56-151 0-93-57-158.5t-172-85.5q43-43 43-104v-129q0-1 1-3 0-6 0.5-9t4.5-6 12-3q153 52 250.5 185.5t97.5 300.5q0 104-40.5 199t-109 163.5-163.5 109-199 40.5-199-40.5-163.5-109-109-163.5-40.5-199z" />
<glyph unicode="&#xe6b5;" glyph-name="uniE6AE" d="M960 449q-11 153-120 261.5t-261 120.5q-16 1-27.5-9.5t-11.5-26.5q0-14 9.5-24.5t23.5-11.5q55-4 107-26 61-26 109-73.5t74-109.5q22-51 26-106 1-14 11.5-23.5t24.5-9.5q15 0 26 11 11 12 9 27z" />
<glyph unicode="&#xe6b6;" glyph-name="uniE6AF" d="M638 800h-372q-28 0-47.5-19t-19.5-46v-702q0-27 19.5-46t47.5-19h492q28 0 47.5 19t19.5 46v557zM262 735q1 1 4 1h291v-147q0-24 17-40.5t40-16.5h148v-499q-1-1-4-1h-492q-3 0-4 1v702zM620 595v129l116-129h-116zM535 386q0 15-9 23t-24 8q-23 0-46-24l-45 41q42 48 101 48 45 0 73-22.5t28-68.5q0-21-12-40.5t-26.5-32-25-31-8.5-39.5h-71q-4 24 5.5 46t23 35.5 25 29 11.5 27.5zM472 169q0 15 9.5 25t24 10 24-10 9.5-25-10-25-24-10-23.5 10-9.5 25z" />
<glyph unicode="&#xe6b7;" glyph-name="uniE6B0" d="M638 800h-372q-28 0-47.5-19t-19.5-46v-702q0-27 19.5-46t47.5-19h492q28 0 47.5 19t19.5 46v557zM262 735q1 1 4 1h291v-147q0-24 17-40.5t40-16.5h148v-499q-1-1-4-1h-492q-3 0-4 1v702zM620 595v129l116-129h-116zM476 327l-45 127h69l13-47q4-15 12-43h1q11 22 24 43l27 47h67l-90-130 48-131h-69l-16 51q-3 12-11 43h-2q-12-22-25-43l-32-51h-66z" />
<glyph unicode="&#xe6b8;" glyph-name="uniE6B1" d="M638 800h-372q-28 0-47.5-19t-19.5-46v-702q0-27 19.5-46t47.5-19h492q28 0 47.5 19t19.5 46v557zM262 735q1 1 4 1h291v-147q0-24 17-40.5t40-16.5h148v-499q-1-1-4-1h-492q-3 0-4 1v702zM620 595v129l116-129h-116zM443 462h92q48 0 73-20t17-65q-8-44-41.5-66.5t-77.5-22.5h-31l-15-97h-63zM512 337q45 0 52 40 3 19-7 27t-34 8h-26l-13-75h28z" />
<glyph unicode="&#xe6b9;" glyph-name="uniE6B2" d="M638 800h-372q-28 0-47.5-19t-19.5-46v-702q0-27 19.5-46t47.5-19h492q28 0 47.5 19t19.5 46v557zM262 735q1 1 4 1h291v-147q0-24 17-40.5t40-16.5h148v-499q-1-1-4-1h-492q-3 0-4 1v702zM620 595v129l116-129h-116zM384 444h62l-4-115-4-80h2q13 38 29 80l46 115h51l6-115v-80h2q5 16 14 45.5t10 34.5l36 115h58l-88-253h-77l-3 110q-1 30 0 59h-1q-16-45-21-59l-41-110h-75z" />
<glyph unicode="&#xe6ba;" glyph-name="uniE6B3" d="M638 800h-372q-28 0-47.5-19t-19.5-46v-702q0-27 19.5-46t47.5-19h492q28 0 47.5 19t19.5 46v557zM262 735q1 1 4 1h291v-147q0-24 17-40.5t40-16.5h148v-499q-1-1-4-1h-492q-3 0-4 1v702zM620 595v129l116-129h-116zM321 402h51q59 0 59-47 0-25-16.5-37.5t-41.5-12.5h-17v-49h-35v146zM372 332q25 0 25 23 0 20-26 20h-15v-43h16zM456 402h42q74 0 74-72 0-37-19-55.5t-53-18.5h-44v146zM496 284q40 0 40 46 0 44-40 44h-5v-90h5zM600 402h93v-29h-58v-32h50v-29h-50v-56h-35v146z" />
<glyph unicode="&#xe6bb;" glyph-name="uniE6B4" d="M902 766h-779q-23 0-40-17t-17-40v-480q0-24 17-40.5t40-16.5h357v-108h-147q-13 0-22.5-9.5t-9.5-22.5 9.5-22 22.5-9h358q13 0 22.5 9t9.5 22-9.5 22.5-22.5 9.5h-148v108h359q24 0 40.5 16.5t16.5 40.5v480q0 23-16.5 40t-40.5 17zM896 703v-468h-767v468h767z" />
<glyph unicode="&#xe6bc;" glyph-name="uniE6B5" d="M512 895q-104 0-199-40.5t-163.5-109-109-163.5-40.5-199 40.5-198.5 109-163 163.5-109 199-40.5 198.5 40.5 163 109 109 163 40.5 198.5-40.5 199-109 163.5-163 109-198.5 40.5zM828 67q-62-62-142-96-83-35-174-35t-174 35q-81 34-143 96t-96 142q-35 83-35 174t35 175q34 80 96 142t142 96q83 35 174.5 35t174.5-35q80-34 142-96t96-142q35-83 35-174.5t-35-174.5q-34-80-96-142zM528 559q-7 7-16 7h-1q-10 0-16-7l-229-244q-10-11-4.5-25t21.5-14h457q16 0 22 14t-5 25z" />
<glyph unicode="&#xe6bd;" glyph-name="uniE6B6" d="M488 822q10 10 24 10t24-10l156-156q10-10 10-24.5t-10-24.5-24-10-25 10l-96 97v-578q0-14-10.5-24t-24.5-10-24.5 10-10.5 24v578l-97-97q-10-10-24-10t-24 10-10 24.5 10 24.5zM924.5 256q-14.5 0-24.5-10.5t-10-24.5v-195q0-9-6-15t-15-6h-716q-9 0-15 6t-6 15v195q0 14-10 24.5t-24.5 10.5-24.5-10.5-10-24.5v-223q0-26 18-44t44-18h772q26 0 44 18.5t18 43.5v223q0 14-10 24.5t-24.5 10.5z" />
<glyph unicode="&#xe6be;" glyph-name="uniE6B7" d="M488 112q10-10 24-10t24 10l156 156q11 10 11 24t-10.5 24.5-24.5 10.5-24-11l-97-96v577q0 15-10.5 25t-24.5 10-24-10-10-25v-577l-97 97q-11 10-25 10t-24-10.5-10-24.5 10-24zM924.5 256q-14.5 0-24.5-10.5t-10-24.5v-195q0-9-6-15t-15-6h-716q-9 0-15 6t-6 15v195q0 14-10 24.5t-24.5 10.5-24.5-10.5-10-24.5v-223q0-26 18-44t44-18h772q26 0 44 18.5t18 43.5v223q0 14-10 24.5t-24.5 10.5z" />
<glyph unicode="&#xe6bf;" glyph-name="uniE6B8" d="M467-128q95 0 180 36t150 101l-330 328v465q-95 0-181.5-36.5t-149-99-99.5-148.5-37-180.5 37-181 99.5-148.5 149-99 181.5-37v0zM531 404h493q0 100-39 191t-105 157-157.5 105-191.5 39v-492zM557 339l332-327q64 64 99.5 148.5t35.5 178.5h-467z" />
<glyph unicode="&#xe6c0;" glyph-name="uniE6B9" d="M824 614q-26 64-73 113-46 50-107 77-63 28-132 28t-132-28q-61-27-108-76.5t-72-113.5q-27-66-27-139v-470q0-29 19.5-49t46.5-20h545q28 0 47.5 20t18.5 49v415l1 19v36q0 72-27 139zM407 741l1 1q49 22 104 22 54 0 104-22 48-22 86-62 38-39 59-92t21-113v-29h-541v29q0 59 22 113 21 53 59 92.5t85 60.5zM783 378v-373q0-1-1-1h-540q-1 0-1 1v373h542zM480 224v-90q0-13 9.5-22t22.5-9 22.5 9 9.5 22v90q27 17 27 49 0 25-17.5 42t-41.5 17-41.5-17-17.5-42q0-32 27-49z" />
<glyph unicode="&#xe6c1;" glyph-name="uniE6BA" d="M241 446v30q0 58 22 113 21 52 59 91 38 40 85 61l1 1q49 22 104 22 54 0 104-22 48-22 86-61 21-23 53-83 10-20 31-20h14q14 0 21.5 11.5t2.5 24.5q-26 64-73 113-46 50-107 77-63 28-132 28t-132-28q-61-27-108-76.5t-72-113.5q-27-66-27-139v-470q0-29 19.5-49t46.5-20h545q28 0 47 20t19 49l1 377q0 26-19 45t-45 19h-546zM783 5q0-1-1-1h-540q-1 0-1 1v373h542v-373zM480 224v-90q0-13 9.5-22t22.5-9 22.5 9 9.5 22v90q27 17 27 49 0 25-17.5 42t-41.5 17-41.5-17-17.5-42q0-32 27-49z" />
<glyph unicode="&#xe6c2;" glyph-name="uniE6BB" d="M700 420h-376q-13 0-22-9.5t-9-22.5 9-22 22-9h376q13 0 22 9t9 22-9 22.5-22 9.5zM700 250h-376q-13 0-22-9t-9-22 9-22.5 22-9.5h376q13 0 22 9.5t9 22.5-9 22-22 9zM889 713h-115v25q0 13-9.5 22t-22.5 9-22-9-9-22v-25h-398v25q0 13-9 22t-22 9-22.5-9-9.5-22v-25h-115q-30 0-51-21t-21-51v-568q0-30 21-51t51-21h754q30 0 51 21t21 51v568q0 30-21 51t-51 21zM135 641h115v-16q0-13 9.5-22.5t22.5-9.5 22 9.5 9 22.5v16h398v-16q0-13 9-22.5t22-9.5 22.5 9.5 9.5 22.5v16h115v-98h-754v98zM889 73h-754v407h754v-407z" />
<glyph unicode="&#xe6c3;" glyph-name="uniE6BC" d="M527 27l434-71v401h-434v-330zM599 285h290v-244l-290 47v197zM527 758v-329h434v401zM889 501h-290v196l290 48v-244zM68 429h367v317l-367-61v-256zM140 624l223 37v-160h-223v123zM68 99l367-60v318h-367v-258zM140 285h223v-161l-223 36v125z" />
<glyph unicode="&#xe6c4;" glyph-name="uniE6BD" d="M923 8h-788v789q0 15-10.5 25.5t-25.5 10.5-25.5-10.5-10.5-25.5v-825q0-15 10.5-25.5t25.5-10.5h824q15 0 25.5 10.5t10.5 25.5-10.5 25.5-25.5 10.5zM253 259.5q0 27.5 19 46.5t46.5 19 47-19 19.5-46.5-19.5-47-47-19.5-46.5 19.5-19 47zM512 299q0 35 25 60t60.5 25 60.5-25 25-60-25-60-60.5-25-60.5 25-25 60zM563 514q0 25 17.5 42.5t42.5 17.5 42.5-17.5 17.5-42.5-17.5-42.5-42.5-17.5-42.5 17.5-17.5 42.5zM805 657.5q0 18.5 13 32t32 13.5 32.5-13.5 13.5-32-13.5-32-32.5-13.5-32 13.5-13 32zM830 466q0 14 9.5 23.5t23.5 9.5 23.5-9.5 9.5-23.5-9.5-23.5-23.5-9.5-23.5 9.5-9.5 23.5z" />
</font>
</defs>
</svg>
